<svg xmlns="http://www.w3.org/2000/svg" width="125" height="44" viewBox="0 0 125 44">
    <g fill="none" fill-rule="nonzero">
        <path fill="#FFFF76" d="M45.458 3.526a9.58 9.58 0 0 0-3.972-1.188 4.69 4.69 0 0 1-1.408-.295 6.525 6.525 0 0 1-.824-.446c-1.559-.893-3.268-1.603-5.657-.585a21.68 21.68 0 0 0-19.963 3.64 8.913 8.913 0 0 0-7.36 3.77 9.837 9.837 0 0 1-2.132 2.182C-.314 13.967.371 17.003 1.17 18.511l.107.208c.572 1.106 1.886 3.696 4.136 4.312 0 .302.038.628.075.918a21.598 21.598 0 0 0 6.915 13.715 6.286 6.286 0 0 0 9.63 5.11 21.742 21.742 0 0 0 14.582-1.596l.126.037a6.286 6.286 0 0 0 8.02-6.958 21.66 21.66 0 0 0 2.905-19.435 11.113 11.113 0 0 0 1.351-3.344c.063-.233.12-.447.176-.629.647-2.124.528-5.11-3.734-7.323z"/>
        <path fill="#000075" d="M28.462 5.4a.629.629 0 0 0-.88-.139 6.078 6.078 0 0 1-5.62.585.63.63 0 1 0-.496 1.156 6.77 6.77 0 0 0 2.703.566 7.574 7.574 0 0 0 4.154-1.289.629.629 0 0 0 .139-.88zm17.996 10.767a.629.629 0 1 0-1.207.34 18.7 18.7 0 0 1-1.93 14.822.629.629 0 1 0 1.081.628 19.945 19.945 0 0 0 2.728-12.408 20.29 20.29 0 0 0-.672-3.382zM16.827 5.75a.629.629 0 0 0 .333-.094 18.687 18.687 0 0 1 7.977-2.728 18.901 18.901 0 0 1 5.801.283.641.641 0 0 0 .252-1.257 20.196 20.196 0 0 0-14.696 2.608.629.629 0 0 0 .333 1.188zM8.354 23.653c-.021-.205-.04-.415-.057-.628a.63.63 0 0 0-1.257.088c0 .217.019.427.057.628a19.945 19.945 0 0 0 5.217 11.534.63.63 0 1 0 .924-.854 18.694 18.694 0 0 1-4.884-10.768zm25.488 15.645c-.226.088-.459.157-.685.24h-.082a.314.314 0 0 0-.2.106c-.246.075-.491.145-.736.214a.308.308 0 0 0-.314-.189.314.314 0 0 0-.283.346c-.208.05-.421.088-.629.132a.316.316 0 1 0-.629-.006.308.308 0 0 0 .038.125c-.232.038-.465.07-.691.1a.308.308 0 0 0 0-.156.316.316 0 1 0-.629.063c.008.06.035.117.076.163-.227 0-.453.031-.685.05a.308.308 0 0 0 0-.15.316.316 0 0 0-.629.062c.005.045.02.088.044.126h-.673a.316.316 0 1 0-.629 0l-.628-.038a.308.308 0 0 0-.54-.037c-.371-.032-.748-.076-1.12-.132a.636.636 0 0 0-.188 1.257c1.007.154 2.024.232 3.043.232.71-.002 1.419-.042 2.124-.12 1.74-.18 3.45-.589 5.085-1.212a.629.629 0 1 0-.44-1.176z"/>
        <path fill="#000075" d="M38.462 26.538a5.733 5.733 0 0 0 2.093-.452.629.629 0 1 0-.477-1.163c-2.169.892-3.439-.132-3.489-.17l-.056-.031c-2.515-2.131-5.727-3.721-9.391-3.338-3.91.44-6.845 2.954-8.945 5.82a8.065 8.065 0 0 1-5.129 1.34.63.63 0 1 0-.082 1.257h.68a9.63 9.63 0 0 0 3.142-.535 32.27 32.27 0 0 0-2.93 6.713 5.046 5.046 0 1 0 9.662 2.917c1.113-3.646 2.697-5.531 4.846-5.758 2.414-.251 3.772.786 5.74 4.438a5.029 5.029 0 1 0 8.856-4.758 31.083 31.083 0 0 0-4.52-6.28zm3.703 9.743a3.771 3.771 0 0 1-.761 1.37.308.308 0 0 0-.333-.232.315.315 0 0 0-.05.628c-.21.185-.44.345-.686.478a3.683 3.683 0 0 1-3.928-.239.314.314 0 0 0-.346-.333h-.056c-.199-.19-.376-.4-.528-.628a.314.314 0 0 0-.17-.591.308.308 0 0 0-.164.075c-.132-.239-.257-.471-.39-.685a.314.314 0 0 0-.32-.534 6.048 6.048 0 0 0-.427-.629.308.308 0 0 0 .132-.283.314.314 0 0 0-.34-.283.308.308 0 0 0-.144.063c-.17-.226-.34-.433-.51-.628a.308.308 0 0 0 .246-.333.316.316 0 0 0-.629-.063 5.657 5.657 0 0 0-1.414-1.063.308.308 0 0 0-.327-.213h-.082a5.557 5.557 0 0 0-2.703-.296 5.104 5.104 0 0 0-2.332.836c-1.52 1.069-2.702 2.955-3.576 5.833a3.771 3.771 0 0 1-6.801.893.314.314 0 0 0-.22-.566h-.063a3.771 3.771 0 0 1-.264-1.885c.043.01.088.01.132 0a.314.314 0 0 0 .258-.327.308.308 0 0 0-.29-.277c.057-.195.139-.452.246-.773a.308.308 0 0 0 .251.094.316.316 0 0 0-.063-.628c.088-.248.187-.514.296-.799a.308.308 0 0 0 .264.107.316.316 0 1 0-.063-.628c.1-.245.207-.497.32-.76a.314.314 0 0 0 .516-.277.308.308 0 0 0-.22-.277c.107-.233.22-.478.34-.717.045.01.092.01.137 0a.314.314 0 0 0 .283-.345.308.308 0 0 0-.144-.227c.13-.251.266-.505.408-.76a.277.277 0 0 0 .214-.377 22.497 22.497 0 0 1 1.678-2.515.314.314 0 1 0 .371-.458 15.086 15.086 0 0 1 2.175-2.169c-.03.21-.014.424.044.629a3.37 3.37 0 0 0 1.144 1.577c.04.077.11.134.195.157a7.392 7.392 0 0 0 4.689 1.427 6.09 6.09 0 0 0 2.407-.892.308.308 0 0 0 .246-.176 7.543 7.543 0 0 0 1.483-1.257.314.314 0 0 0 .277-.346 3.86 3.86 0 0 0 .792-1.64c.01-.103.01-.206 0-.309l.502.308a.314.314 0 1 0 .472.308c.494.335.97.696 1.427 1.081l.063.05c.293.252.578.508.854.768a.308.308 0 0 0-.207.32.316.316 0 1 0 .629.07 29.543 29.543 0 0 1 4.783 6.499c.245.457.392.96.434 1.477a.308.308 0 0 0-.252-.094.316.316 0 0 0 .063.628.308.308 0 0 0 .195-.1c-.015.317-.07.632-.163.936zm-18.97-26.01a.63.63 0 0 0-.799.974 4.903 4.903 0 0 1 1.42 3.2.629.629 0 0 0 .63.565h.068a.629.629 0 0 0 .56-.691 6.129 6.129 0 0 0-1.88-4.048zm5.374-.566a6.116 6.116 0 0 0-.994 4.344.629.629 0 0 0 .629.565h.05a.629.629 0 0 0 .56-.691 4.903 4.903 0 0 1 .723-3.413.63.63 0 1 0-.968-.805zM9.46 18.423c0-.132 0-.282.038-.452.107-1.257.276-3.426 2.1-5.029a5.997 5.997 0 0 1 3.243-1.427.63.63 0 0 0-.063-1.257h-.29a.315.315 0 1 0-.628-.044c.008.053.03.103.063.145a7.335 7.335 0 0 0-3.143 1.603c-.4.349-.76.743-1.069 1.175a.314.314 0 1 0-.603.15c.016.159.15.278.308.278a6.914 6.914 0 0 0-.333.716.308.308 0 0 0-.421.327.308.308 0 0 0 .182.245c-.094.258-.176.51-.239.754a.308.308 0 0 0-.157 0 .314.314 0 0 0-.277.346c.04.124.153.21.283.214a14.81 14.81 0 0 0-.207 1.678c0 .157 0 .296-.038.421-.144 1.333-.434 2.144-1.496 2.339-1.44.276-2.684-2.15-3.143-3.062l-.144-.213a2.294 2.294 0 0 1-.252-.792c.052.125.18.201.315.188a.316.316 0 1 0-.063-.628.308.308 0 0 0-.27.257 3.526 3.526 0 0 1 1.05-2.388.308.308 0 0 0 .49.012.314.314 0 0 0 .069-.232.308.308 0 0 0-.139-.22c.337-.326.694-.63 1.069-.912l.245-.17c.048.133.18.216.32.202a.314.314 0 0 0 .277-.346.308.308 0 0 0-.144-.226c.45-.386.871-.806 1.257-1.257a.314.314 0 1 0 .163-.195c.189-.226.352-.446.516-.629l.062-.075a.308.308 0 0 0 .063-.038.314.314 0 0 0 .283-.346.308.308 0 0 0 0-.094c.342-.44.754-.82 1.22-1.125.065.085.17.13.276.12a.314.314 0 0 0 .277-.346.308.308 0 0 0 0-.088 6.43 6.43 0 0 1 4.607-.692.308.308 0 0 0-.201.32.316.316 0 1 0 .629-.062.308.308 0 0 0-.176-.201c.238.056.49.126.748.207a.308.308 0 0 0 .44.157c.53.198 1.049.426 1.552.686a.308.308 0 0 0 0 .132.314.314 0 0 0 .56.157c.22.125.446.245.672.383a.629.629 0 1 0 .629-1.075c-5.538-3.35-8.8-2.036-10.761-.76a7.36 7.36 0 0 0-1.936 1.923 11.17 11.17 0 0 1-2.376 2.42c-3.527 2.659-3.37 4.903-2.622 6.286l.12.226c.597 1.157 1.936 3.772 4.023 3.772.162 0 .324-.015.484-.044 2.231-.384 2.464-2.527 2.558-3.414zM44.88 4.645a8.379 8.379 0 0 0-3.52-1.081 5.82 5.82 0 0 1-1.735-.377 7.298 7.298 0 0 1-.974-.503c-1.616-.93-3.627-2.08-7.681 1.722a.63.63 0 1 0 .86.918c.372-.352.717-.629 1.044-.899a.316.316 0 1 0 .629-.006.308.308 0 0 0-.245-.27c2.32-1.685 3.495-1.1 4.689-.415a.314.314 0 1 0 .54.301c.226.126.459.238.698.334a6.53 6.53 0 0 0 1.012.301.314.314 0 1 0 .346.277.308.308 0 0 0-.176-.245c.289.056.553.081.81.107a.302.302 0 0 0-.037.044.314.314 0 0 0 .346.282.308.308 0 0 0 .283-.282 7.342 7.342 0 0 1 2.514.905l.088.05a.295.295 0 0 0 .427.239c1.685 1.006 2.15 2.036 2.156 2.96h-.025a.314.314 0 0 0-.276.346c.015.14.124.251.264.27-.033.166-.075.33-.126.49l-.088.315a.308.308 0 0 0-.264-.107.316.316 0 1 0 .063.629h.063c-.088.333-.183.66-.283.968a.314.314 0 1 0-.277.364.308.308 0 0 0 .164-.113c-.11.34-.252.667-.422.98a.308.308 0 0 0-.32-.2.314.314 0 0 0-.277.345.308.308 0 0 0 .296.277.943.943 0 0 1-.943.333c-.905-.207-1.333-.704-2.106-2.137a19.269 19.269 0 0 1-.434-.824 4.796 4.796 0 0 0-1.69-2.08.308.308 0 0 0 0-.145.314.314 0 0 0-.346-.276.308.308 0 0 0-.176.088c-.277-.176-.591-.359-.956-.566-.176-.1-.352-.182-.528-.264a.314.314 0 0 0-.345-.283.308.308 0 0 0-.189.094 7.31 7.31 0 0 0-2.916-.42c.13-.051.21-.183.194-.321a.314.314 0 1 0-.383.333h-.113a.637.637 0 0 0 .201 1.257 5.909 5.909 0 0 1 3.47.723c.446.245.798.459 1.08.628a3.577 3.577 0 0 0-2.224.906.629.629 0 1 0 .83.942 2.722 2.722 0 0 1 2.784-.37l.17.326c.132.258.276.541.465.874.81 1.42 1.452 2.376 2.973 2.716.18.04.363.062.547.062 1.923 0 2.59-2.514 2.998-4.048.07-.251.126-.477.189-.672.741-2.42-.277-4.337-3.118-5.802zM22.465 20.271a.629.629 0 0 0 .371-.119c.15-.113 3.847-2.728 8.134-.842a.63.63 0 1 0 .496-1.157c-4.99-2.156-9.183.855-9.372.98a.629.629 0 0 0 .371 1.138zm15.532-3.18a3.143 3.143 0 1 0 .663 6.25 3.143 3.143 0 0 0-.663-6.25zm.974 3.086a.786.786 0 1 1 .686-.867.786.786 0 0 1-.704.873l.018-.006zM16.154 25.71a3.143 3.143 0 1 0-.663-6.251 3.143 3.143 0 0 0 .663 6.25zm.132-4.721a.786.786 0 1 1 .172 1.562.786.786 0 0 1-.172-1.562zm17.255-5.28a.629.629 0 0 0 .88.113 6.04 6.04 0 0 1 5.6-.911.629.629 0 0 0 .459-1.17 7.543 7.543 0 0 0-4.4-.163 6.983 6.983 0 0 0-2.445 1.226.629.629 0 0 0-.094.905z"/>
        <path fill="#000075" d="M11.597 18.65a.629.629 0 0 0 .886.081 6.053 6.053 0 0 1 5.563-1.087.638.638 0 0 0 .465-1.188 6.185 6.185 0 0 0-1.112-.251 7.172 7.172 0 0 0-5.657 1.552.629.629 0 0 0-.145.893zm1.886-4.444a.629.629 0 0 0 .578.39.629.629 0 0 0 .239-.05 6.682 6.682 0 0 1 2.93-.44.633.633 0 0 0 .144-1.258 7.87 7.87 0 0 0-3.558.528.629.629 0 0 0-.333.83z"/>
        <circle cx="16.592" cy="39.051" r="1" fill="#000075" transform="rotate(-6 16.592 39.051)"/>
        <circle cx="15.837" cy="37.867" r="1" fill="#000075" transform="rotate(-6 15.837 37.867)"/>
        <circle cx="17.086" cy="37.737" r="1" fill="#000075" transform="rotate(-6 17.086 37.737)"/>
        <circle cx="16.326" cy="36.558" r="1" fill="#000075" transform="rotate(-6 16.326 36.558)"/>
        <circle cx="17.581" cy="36.422" r="1" fill="#000075" transform="rotate(-6 17.581 36.422)"/>
        <circle cx="18.83" cy="36.287" r="1" fill="#000075" transform="rotate(-6 18.83 36.287)"/>
        <circle cx="20.079" cy="36.156" r="1" fill="#000075" transform="rotate(-6 20.08 36.156)"/>
        <circle cx="21.328" cy="36.026" r="1" fill="#000075" transform="rotate(-6 21.328 36.026)"/>
        <circle cx="22.584" cy="35.89" r="1" fill="#000075" transform="rotate(-6 22.584 35.89)"/>
        <circle cx="21.829" cy="34.712" r="1" fill="#000075" transform="rotate(-6 21.83 34.712)"/>
        <circle cx="20.574" cy="34.842" r="1" fill="#000075" transform="rotate(-6 20.574 34.842)"/>
        <circle cx="19.325" cy="34.972" r="1" fill="#000075" transform="rotate(-6 19.325 34.972)"/>
        <circle cx="18.076" cy="35.108" r="1" fill="#000075" transform="rotate(-6 18.076 35.108)"/>
        <circle cx="16.82" cy="35.238" r="1" fill="#000075" transform="rotate(-6 16.82 35.238)"/>
        <circle cx="17.321" cy="33.918" r="1" fill="#000075" transform="rotate(-6 17.32 33.918)"/>
        <circle cx="18.57" cy="33.788" r="1" fill="#000075" transform="rotate(-6 18.57 33.788)"/>
        <circle cx="19.819" cy="33.651" r="1" fill="#000075" transform="rotate(-6 19.819 33.651)"/>
        <circle cx="21.068" cy="33.522" r="1" fill="#000075" transform="rotate(-6 21.068 33.522)"/>
        <circle cx="22.319" cy="33.392" r="1" fill="#000075" transform="rotate(-6.03 22.32 33.392)"/>
        <circle cx="23.561" cy="33.268" r="1" fill="#000075" transform="rotate(-6 23.56 33.268)"/>
        <circle cx="23.078" cy="34.582" r="1" fill="#000075" transform="rotate(-6 23.078 34.582)"/>
        <circle cx="22.812" cy="32.078" r="1" fill="#000075" transform="rotate(-6 22.812 32.078)"/>
        <circle cx="21.563" cy="32.208" r="1" fill="#000075" transform="rotate(-6 21.563 32.208)"/>
        <circle cx="20.314" cy="32.344" r="1" fill="#000075" transform="rotate(-6 20.314 32.344)"/>
        <circle cx="19.059" cy="32.474" r="1" fill="#000075" transform="rotate(-6 19.059 32.474)"/>
        <circle cx="17.809" cy="32.604" r="1" fill="#000075" transform="rotate(-6 17.81 32.604)"/>
        <circle cx="18.304" cy="31.29" r="1" fill="#000075" transform="rotate(-6 18.304 31.29)"/>
        <circle cx="19.559" cy="31.153" r="1" fill="#000075" transform="rotate(-6 19.559 31.153)"/>
        <circle cx="20.81" cy="31.024" r="1" fill="#000075" transform="rotate(-6.03 20.81 31.024)"/>
        <circle cx="22.058" cy="30.893" r="1" fill="#000075" transform="rotate(-6 22.058 30.893)"/>
        <circle cx="23.307" cy="30.764" r="1" fill="#000075" transform="rotate(-6 23.307 30.764)"/>
        <circle cx="24.556" cy="30.634" r="1" fill="#000075" transform="rotate(-6 24.556 30.634)"/>
        <circle cx="25.805" cy="30.504" r="1" fill="#000075" transform="rotate(-6 25.805 30.504)"/>
        <circle cx="27.054" cy="30.367" r="1" fill="#000075" transform="rotate(-6 27.054 30.367)"/>
        <circle cx="28.303" cy="30.237" r="1" fill="#000075" transform="rotate(-6 28.303 30.237)"/>
        <circle cx="29.558" cy="30.101" r="1" fill="#000075" transform="rotate(-6 29.558 30.101)"/>
        <circle cx="30.808" cy="29.977" r="1" fill="#000075" transform="rotate(-6 30.808 29.977)"/>
        <circle cx="32.063" cy="29.841" r="1" fill="#000075" transform="rotate(-6 32.063 29.841)"/>
        <circle cx="33.306" cy="29.717" r="1" fill="#000075" transform="rotate(-6 33.306 29.717)"/>
        <circle cx="34.562" cy="29.581" r="1" fill="#000075" transform="rotate(-6 34.562 29.581)"/>
        <circle cx="35.804" cy="29.452" r="1" fill="#000075" transform="rotate(-6 35.804 29.452)"/>
        <circle cx="37.06" cy="29.315" r="1" fill="#000075" transform="rotate(-6 37.06 29.315)"/>
        <circle cx="38.303" cy="29.192" r="1" fill="#000075" transform="rotate(-6 38.303 29.192)"/>
        <circle cx="24.067" cy="31.941" r="1" fill="#000075" transform="rotate(-6 24.067 31.941)"/>
        <circle cx="25.316" cy="31.811" r="1" fill="#000075" transform="rotate(-6 25.316 31.811)"/>
        <circle cx="26.565" cy="31.681" r="1" fill="#000075" transform="rotate(-6 26.565 31.681)"/>
        <circle cx="27.815" cy="31.545" r="1" fill="#000075" transform="rotate(-6 27.815 31.545)"/>
        <circle cx="29.064" cy="31.422" r="1" fill="#000075" transform="rotate(-6 29.064 31.422)"/>
        <circle cx="30.314" cy="31.29" r="1" fill="#000075" transform="rotate(-6.01 30.314 31.29)"/>
        <circle cx="31.562" cy="31.155" r="1" fill="#000075" transform="rotate(-6 31.562 31.155)"/>
        <circle cx="32.811" cy="31.032" r="1" fill="#000075" transform="rotate(-6 32.811 31.032)"/>
        <circle cx="34.061" cy="30.902" r="1" fill="#000075" transform="rotate(-6 34.06 30.902)"/>
        <circle cx="24.816" cy="33.138" r="1" fill="#000075" transform="rotate(-6 24.816 33.138)"/>
        <circle cx="28.068" cy="34.056" r="1" fill="#000075" transform="rotate(-6 28.068 34.056)"/>
        <circle cx="29.324" cy="33.92" r="1" fill="#000075" transform="rotate(-6 29.324 33.92)"/>
        <circle cx="26.331" cy="35.5" r="1" fill="#000075" transform="rotate(-6 26.331 35.5)"/>
        <circle cx="27.587" cy="35.37" r="1" fill="#000075" transform="rotate(-6 27.587 35.37)"/>
        <circle cx="28.836" cy="35.24" r="1" fill="#000075" transform="rotate(-6 28.836 35.24)"/>
        <circle cx="30.085" cy="35.11" r="1" fill="#000075" transform="rotate(-6 30.085 35.11)"/>
        <circle cx="31.334" cy="34.974" r="1" fill="#000075" transform="rotate(-6 31.334 34.974)"/>
        <circle cx="25.837" cy="36.814" r="1" fill="#000075" transform="rotate(-6 25.837 36.814)"/>
        <circle cx="27.086" cy="36.684" r="1" fill="#000075" transform="rotate(-6 27.086 36.684)"/>
        <circle cx="28.338" cy="36.551" r="1" fill="#000075" transform="rotate(-6.03 28.338 36.55)"/>
        <circle cx="29.59" cy="36.418" r="1" fill="#000075" transform="rotate(-6 29.59 36.418)"/>
        <circle cx="30.839" cy="36.288" r="1" fill="#000075" transform="rotate(-6 30.84 36.288)"/>
        <circle cx="32.089" cy="36.156" r="1" fill="#000075" transform="rotate(-6.01 32.09 36.156)"/>
        <circle cx="25.348" cy="38.128" r="1" fill="#000075" transform="rotate(-6 25.348 38.128)"/>
        <circle cx="26.597" cy="37.998" r="1" fill="#000075" transform="rotate(-6 26.597 37.998)"/>
        <circle cx="27.846" cy="37.862" r="1" fill="#000075" transform="rotate(-6 27.846 37.862)"/>
        <circle cx="29.096" cy="37.739" r="1" fill="#000075" transform="rotate(-6 29.096 37.739)"/>
        <circle cx="30.345" cy="37.609" r="1" fill="#000075" transform="rotate(-6 30.345 37.609)"/>
        <circle cx="31.594" cy="37.479" r="1" fill="#000075" transform="rotate(-6 31.594 37.479)"/>
        <circle cx="24.848" cy="39.449" r="1" fill="#000075" transform="rotate(-6 24.848 39.449)"/>
        <circle cx="26.105" cy="39.318" r="1" fill="#000075" transform="rotate(-6.01 26.105 39.318)"/>
        <circle cx="27.352" cy="39.183" r="1" fill="#000075" transform="rotate(-6 27.352 39.183)"/>
        <circle cx="28.601" cy="39.053" r="1" fill="#000075" transform="rotate(-6 28.601 39.053)"/>
        <circle cx="29.856" cy="38.923" r="1" fill="#000075" transform="rotate(-6 29.856 38.923)"/>
        <circle cx="31.105" cy="38.786" r="1" fill="#000075" transform="rotate(-6 31.105 38.786)"/>
        <circle cx="32.355" cy="38.656" r="1" fill="#000075" transform="rotate(-6 32.355 38.656)"/>
        <circle cx="33.604" cy="38.526" r="1" fill="#000075" transform="rotate(-6 33.604 38.526)"/>
        <circle cx="32.849" cy="37.342" r="1" fill="#000075" transform="rotate(-6 32.85 37.342)"/>
        <circle cx="35.316" cy="30.765" r="1" fill="#000075" transform="rotate(-6 35.316 30.765)"/>
        <circle cx="36.565" cy="30.629" r="1" fill="#000075" transform="rotate(-6 36.565 30.63)"/>
        <circle cx="37.814" cy="30.499" r="1" fill="#000075" transform="rotate(-6 37.814 30.499)"/>
        <circle cx="32.317" cy="32.345" r="1" fill="#000075" transform="rotate(-6 32.317 32.345)"/>
        <circle cx="33.566" cy="32.216" r="1" fill="#000075" transform="rotate(-6 33.566 32.216)"/>
        <circle cx="34.821" cy="32.078" r="1" fill="#000075" transform="rotate(-6.01 34.821 32.078)"/>
        <circle cx="36.07" cy="31.943" r="1" fill="#000075" transform="rotate(-6 36.07 31.943)"/>
        <circle cx="37.32" cy="31.82" r="1" fill="#000075" transform="rotate(-6 37.32 31.82)"/>
        <circle cx="38.575" cy="31.683" r="1" fill="#000075" transform="rotate(-6 38.575 31.683)"/>
        <circle cx="34.327" cy="33.393" r="1" fill="#000075" transform="rotate(-6 34.327 33.393)"/>
        <circle cx="35.576" cy="33.27" r="1" fill="#000075" transform="rotate(-6 35.576 33.27)"/>
        <circle cx="36.831" cy="33.134" r="1" fill="#000075" transform="rotate(-6 36.831 33.134)"/>
        <circle cx="38.08" cy="32.997" r="1" fill="#000075" transform="rotate(-6 38.08 32.997)"/>
        <circle cx="35.081" cy="34.578" r="1" fill="#000075" transform="rotate(-6 35.081 34.578)"/>
        <circle cx="36.33" cy="34.448" r="1" fill="#000075" transform="rotate(-6 36.33 34.448)"/>
        <circle cx="37.586" cy="34.312" r="1" fill="#000075" transform="rotate(-6 37.586 34.312)"/>
        <circle cx="38.835" cy="34.188" r="1" fill="#000075" transform="rotate(-6 38.835 34.188)"/>
        <circle cx="35.842" cy="35.768" r="1" fill="#000075" transform="rotate(-6 35.842 35.768)"/>
        <circle cx="37.091" cy="35.632" r="1" fill="#000075" transform="rotate(-6 37.091 35.632)"/>
        <circle cx="38.34" cy="35.502" r="1" fill="#000075" transform="rotate(-6 38.34 35.502)"/>
        <circle cx="39.583" cy="35.378" r="1" fill="#000075" transform="rotate(-6 39.583 35.378)"/>
        <circle cx="39.323" cy="32.868" r="1" fill="#000075" transform="rotate(-6 39.323 32.868)"/>
        <circle cx="39.069" cy="30.369" r="1" fill="#000075" transform="rotate(-6 39.07 30.369)"/>
        <circle cx="22.552" cy="29.573" r="1" fill="#000075" transform="rotate(-6 22.552 29.573)"/>
        <circle cx="21.297" cy="29.709" r="1" fill="#000075" transform="rotate(-6 21.297 29.71)"/>
        <circle cx="20.048" cy="29.84" r="1" fill="#000075" transform="rotate(-6 20.048 29.84)"/>
        <circle cx="18.792" cy="29.976" r="1" fill="#000075" transform="rotate(-6 18.792 29.976)"/>
        <circle cx="19.293" cy="28.655" r="1" fill="#000075" transform="rotate(-6 19.293 28.655)"/>
        <circle cx="20.542" cy="28.525" r="1" fill="#000075" transform="rotate(-6 20.542 28.525)"/>
        <circle cx="21.798" cy="28.395" r="1" fill="#000075" transform="rotate(-6 21.798 28.395)"/>
        <circle cx="23.047" cy="28.259" r="1" fill="#000075" transform="rotate(-6 23.047 28.259)"/>
        <circle cx="24.296" cy="28.128" r="1" fill="#000075" transform="rotate(-6.01 24.296 28.128)"/>
        <circle cx="31.797" cy="27.343" r="1" fill="#000075" transform="rotate(-6 31.797 27.343)"/>
        <circle cx="33.046" cy="27.213" r="1" fill="#000075" transform="rotate(-6 33.046 27.213)"/>
        <circle cx="34.295" cy="27.083" r="1" fill="#000075" transform="rotate(-6 34.295 27.083)"/>
        <circle cx="35.551" cy="26.946" r="1" fill="#000075" transform="rotate(-6 35.55 26.946)"/>
        <circle cx="23.801" cy="29.443" r="1" fill="#000075" transform="rotate(-6 23.801 29.443)"/>
        <circle cx="25.05" cy="29.313" r="1" fill="#000075" transform="rotate(-6 25.05 29.313)"/>
        <circle cx="26.3" cy="29.189" r="1" fill="#000075" transform="rotate(-6 26.3 29.19)"/>
        <circle cx="27.555" cy="29.053" r="1" fill="#000075" transform="rotate(-6 27.555 29.053)"/>
        <circle cx="28.804" cy="28.922" r="1" fill="#000075" transform="rotate(-6.01 28.804 28.922)"/>
        <circle cx="30.053" cy="28.787" r="1" fill="#000075" transform="rotate(-6 30.053 28.787)"/>
        <circle cx="31.302" cy="28.657" r="1" fill="#000075" transform="rotate(-6 31.302 28.657)"/>
        <circle cx="32.551" cy="28.527" r="1" fill="#000075" transform="rotate(-6 32.551 28.527)"/>
        <circle cx="33.801" cy="28.391" r="1" fill="#000075" transform="rotate(-6 33.8 28.391)"/>
        <circle cx="35.05" cy="28.261" r="1" fill="#000075" transform="rotate(-6 35.05 28.26)"/>
        <circle cx="36.299" cy="28.137" r="1" fill="#000075" transform="rotate(-6 36.299 28.137)"/>
        <circle cx="37.554" cy="28.001" r="1" fill="#000075" transform="rotate(-6 37.554 28)"/>
        <circle cx="22.279" cy="27.075" r="1" fill="#000075" transform="rotate(-6 22.28 27.075)"/>
        <circle cx="21.037" cy="27.205" r="1" fill="#000075" transform="rotate(-6 21.037 27.205)"/>
        <circle cx="21.531" cy="25.891" r="1" fill="#000075" transform="rotate(-6 21.531 25.89)"/>
        <circle cx="33.534" cy="25.893" r="1" fill="#000075" transform="rotate(-6 33.534 25.893)"/>
        <circle cx="44.238" cy="13.397" r="1" fill="#000075" transform="rotate(-6 44.238 13.397)"/>
        <circle cx="44.726" cy="12.077" r="1" fill="#000075" transform="rotate(-6 44.726 12.077)"/>
        <circle cx="43.471" cy="12.213" r="1" fill="#000075" transform="rotate(-6 43.47 12.213)"/>
        <circle cx="42.723" cy="11.022" r="1" fill="#000075" transform="rotate(-6 42.723 11.022)"/>
        <circle cx="43.972" cy="10.892" r="1" fill="#000075" transform="rotate(-6 43.972 10.892)"/>
        <circle cx="45.221" cy="10.762" r="1" fill="#000075" transform="rotate(-6 45.22 10.762)"/>
        <circle cx="45.709" cy="9.448" r="1" fill="#000075" transform="rotate(-6 45.71 9.448)"/>
        <circle cx="44.466" cy="9.572" r="1" fill="#000075" transform="rotate(-6 44.466 9.572)"/>
        <circle cx="43.217" cy="9.702" r="1" fill="#000075" transform="rotate(-6 43.217 9.702)"/>
        <circle cx="41.968" cy="9.838" r="1" fill="#000075" transform="rotate(-6 41.968 9.838)"/>
        <circle cx="41.207" cy="8.654" r="1" fill="#000075" transform="rotate(-6 41.207 8.654)"/>
        <circle cx="42.456" cy="8.524" r="1" fill="#000075" transform="rotate(-6 42.456 8.524)"/>
        <circle cx="43.705" cy="8.394" r="1" fill="#000075" transform="rotate(-6 43.705 8.394)"/>
        <circle cx="44.954" cy="8.258" r="1" fill="#000075" transform="rotate(-6 44.954 8.258)"/>
        <circle cx="46.203" cy="8.134" r="1" fill="#000075" transform="rotate(-6 46.203 8.134)"/>
        <circle cx="45.455" cy="6.943" r="1" fill="#000075" transform="rotate(-6 45.455 6.943)"/>
        <circle cx="44.202" cy="7.076" r="1" fill="#000075" transform="rotate(-6.01 44.202 7.076)"/>
        <circle cx="42.951" cy="7.21" r="1" fill="#000075" transform="rotate(-6 42.951 7.21)"/>
        <circle cx="41.701" cy="7.334" r="1" fill="#000075" transform="rotate(-6 41.701 7.334)"/>
        <circle cx="40.452" cy="7.47" r="1" fill="#000075" transform="rotate(-6 40.452 7.47)"/>
        <circle cx="39.197" cy="7.599" r="1" fill="#000075" transform="rotate(-6.03 39.197 7.599)"/>
        <circle cx="38.443" cy="6.415" r="1" fill="#000075" transform="rotate(-6 38.443 6.415)"/>
        <circle cx="37.194" cy="6.552" r="1" fill="#000075" transform="rotate(-6 37.194 6.552)"/>
        <circle cx="35.945" cy="6.682" r="1" fill="#000075" transform="rotate(-6 35.945 6.682)"/>
        <circle cx="39.694" cy="6.283" r="1" fill="#000075" transform="rotate(-6.01 39.694 6.283)"/>
        <circle cx="40.947" cy="6.155" r="1" fill="#000075" transform="rotate(-6 40.947 6.155)"/>
        <circle cx="42.196" cy="6.025" r="1" fill="#000075" transform="rotate(-6 42.196 6.025)"/>
        <circle cx="43.445" cy="5.89" r="1" fill="#000075" transform="rotate(-6 43.445 5.89)"/>
        <circle cx="38.937" cy="5.095" r="1" fill="#000075" transform="rotate(-6 38.937 5.095)"/>
        <circle cx="37.681" cy="5.238" r="1" fill="#000075" transform="rotate(-6 37.681 5.238)"/>
        <circle cx="36.439" cy="5.361" r="1" fill="#000075" transform="rotate(-6 36.439 5.361)"/>
        <circle cx="35.19" cy="5.491" r="1" fill="#000075" transform="rotate(-6 35.19 5.491)"/>
        <circle cx="33.941" cy="5.628" r="1" fill="#000075" transform="rotate(-6 33.94 5.628)"/>
        <circle cx="32.685" cy="5.758" r="1" fill="#000075" transform="rotate(-6 32.685 5.758)"/>
        <circle cx="6.986" cy="19.838" r="1" fill="#000075" transform="rotate(-6 6.986 19.838)"/>
        <circle cx="5.743" cy="19.962" r="1" fill="#000075" transform="rotate(-6 5.743 19.962)"/>
        <circle cx="4.981" cy="18.781" r="1" fill="#000075" transform="rotate(-6.01 4.98 18.781)"/>
        <circle cx="4.222" cy="17.606" r="1" fill="#000075" transform="rotate(-6 4.222 17.606)"/>
        <circle cx="5.477" cy="17.47" r="1" fill="#000075" transform="rotate(-6 5.477 17.47)"/>
        <circle cx="6.726" cy="17.34" r="1" fill="#000075" transform="rotate(-6 6.726 17.34)"/>
        <circle cx="7.982" cy="17.203" r="1" fill="#000075" transform="rotate(-6 7.982 17.203)"/>
        <circle cx="7.22" cy="16.02" r="1" fill="#000075" transform="rotate(-6 7.22 16.02)"/>
        <circle cx="5.965" cy="16.15" r="1" fill="#000075" transform="rotate(-6 5.965 16.15)"/>
        <circle cx="4.716" cy="16.28" r="1" fill="#000075" transform="rotate(-6 4.716 16.28)"/>
        <circle cx="3.962" cy="15.102" r="1" fill="#000075" transform="rotate(-6 3.962 15.102)"/>
        <circle cx="5.211" cy="14.965" r="1" fill="#000075" transform="rotate(-6 5.21 14.965)"/>
        <circle cx="6.466" cy="14.835" r="1" fill="#000075" transform="rotate(-6 6.466 14.835)"/>
        <circle cx="7.713" cy="14.702" r="1" fill="#000075" transform="rotate(-6.01 7.713 14.702)"/>
        <circle cx="8.204" cy="13.392" r="1" fill="#000075" transform="rotate(-6 8.204 13.392)"/>
        <circle cx="6.954" cy="13.524" r="1" fill="#000075" transform="rotate(-6.03 6.954 13.524)"/>
        <circle cx="5.706" cy="13.657" r="1" fill="#000075" transform="rotate(-6 5.706 13.657)"/>
        <circle cx="7.449" cy="12.201" r="1" fill="#000075" transform="rotate(-6 7.449 12.2)"/>
        <circle cx="8.704" cy="12.071" r="1" fill="#000075" transform="rotate(-6 8.704 12.07)"/>
        <circle cx="9.953" cy="11.934" r="1" fill="#000075" transform="rotate(-6 9.953 11.934)"/>
        <circle cx="12.946" cy="10.361" r="1" fill="#000075" transform="rotate(-6 12.946 10.36)"/>
        <circle cx="11.691" cy="10.497" r="1" fill="#000075" transform="rotate(-6 11.69 10.497)"/>
        <circle cx="10.442" cy="10.627" r="1" fill="#000075" transform="rotate(-6 10.442 10.627)"/>
        <circle cx="9.193" cy="10.757" r="1" fill="#000075" transform="rotate(-6 9.193 10.757)"/>
        <circle cx="9.691" cy="9.444" r="1" fill="#000075" transform="rotate(-6.03 9.69 9.444)"/>
        <circle cx="10.937" cy="9.313" r="1" fill="#000075" transform="rotate(-6 10.937 9.313)"/>
        <circle cx="12.192" cy="9.176" r="1" fill="#000075" transform="rotate(-6 12.192 9.176)"/>
        <circle cx="13.441" cy="9.046" r="1" fill="#000075" transform="rotate(-6 13.441 9.046)"/>
        <circle cx="14.69" cy="8.916" r="1" fill="#000075" transform="rotate(-6 14.69 8.916)"/>
        <circle cx="15.946" cy="8.78" r="1" fill="#000075" transform="rotate(-6 15.946 8.78)"/>
        <circle cx="17.188" cy="8.651" r="1" fill="#000075" transform="rotate(-6 17.188 8.65)"/>
        <circle cx="13.93" cy="7.732" r="1" fill="#000075" transform="rotate(-6 13.93 7.732)"/>
        <circle cx="12.682" cy="7.856" r="1" fill="#000075" transform="rotate(-6.03 12.682 7.856)"/>
        <circle cx="11.431" cy="7.993" r="1" fill="#000075" transform="rotate(-6 11.43 7.993)"/>
        <circle cx="6.231" cy="18.654" r="1" fill="#000075" transform="rotate(-6 6.231 18.654)"/>
        <circle cx="7.48" cy="18.518" r="1" fill="#000075" transform="rotate(-6 7.48 18.518)"/>
        <circle cx="34.429" cy="4.314" r="1" fill="#000075" transform="rotate(-6 34.43 4.314)"/>
        <circle cx="35.678" cy="4.184" r="1" fill="#000075" transform="rotate(-6 35.678 4.184)"/>
        <circle cx="36.927" cy="4.047" r="1" fill="#000075" transform="rotate(-6 36.927 4.047)"/>
        <circle cx="34.783" cy="25.763" r="1" fill="#000075" transform="rotate(-6 34.783 25.763)"/>
        <circle cx="36.597" cy="36.946" r="1" fill="#000075" transform="rotate(-6 36.597 36.946)"/>
        <circle cx="37.846" cy="36.816" r="1" fill="#000075" transform="rotate(-6 37.846 36.816)"/>
        <circle cx="39.101" cy="36.68" r="1" fill="#000075" transform="rotate(-6 39.101 36.68)"/>
        <circle cx="37.352" cy="38.137" r="1" fill="#000075" transform="rotate(-6 37.352 38.137)"/>
        <circle cx="38.607" cy="38" r="1" fill="#000075" transform="rotate(-6 38.607 38)"/>
        <circle cx="39.856" cy="37.87" r="1" fill="#000075" transform="rotate(-6 39.856 37.87)"/>
        <circle cx="39.824" cy="31.553" r="1" fill="#000075" transform="rotate(-6 39.824 31.553)"/>
        <circle cx="40.572" cy="32.738" r="1" fill="#000075" transform="rotate(-6 40.572 32.738)"/>
        <circle cx="40.084" cy="34.058" r="1" fill="#000075" transform="rotate(-6 40.084 34.058)"/>
        <circle cx="41.34" cy="33.921" r="1" fill="#000075" transform="rotate(-6 41.34 33.921)"/>
        <circle cx="40.839" cy="35.242" r="1" fill="#000075" transform="rotate(-6 40.839 35.242)"/>
        <circle cx="40.35" cy="36.55" r="1" fill="#000075" transform="rotate(-6 40.35 36.55)"/>
        <circle cx="41.599" cy="36.426" r="1" fill="#000075" transform="rotate(-6 41.6 36.426)"/>
        <circle cx="18.341" cy="37.6" r="1" fill="#000075" transform="rotate(-6 18.341 37.6)"/>
        <circle cx="19.584" cy="37.477" r="1" fill="#000075" transform="rotate(-6 19.584 37.477)"/>
        <circle cx="20.84" cy="37.346" r="1" fill="#000075" transform="rotate(-6 20.84 37.346)"/>
        <circle cx="22.089" cy="37.216" r="1" fill="#000075" transform="rotate(-6 22.09 37.216)"/>
        <circle cx="21.596" cy="38.525" r="1" fill="#000075" transform="rotate(-6.01 21.596 38.525)"/>
        <circle cx="17.352" cy="40.235" r="1" fill="#000075" transform="rotate(-6 17.352 40.235)"/>
        <circle cx="18.602" cy="40.105" r="1" fill="#000075" transform="rotate(-6 18.602 40.105)"/>
        <circle cx="17.841" cy="38.921" r="1" fill="#000075" transform="rotate(-6 17.841 38.92)"/>
        <circle cx="19.096" cy="38.791" r="1" fill="#000075" transform="rotate(-6 19.096 38.79)"/>
        <circle cx="19.851" cy="39.968" r="1" fill="#000075" transform="rotate(-6 19.85 39.968)"/>
        <circle cx="21.106" cy="39.838" r="1" fill="#000075" transform="rotate(-6 21.106 39.838)"/>
        <circle cx="20.339" cy="38.661" r="1" fill="#000075" transform="rotate(-6 20.34 38.66)"/>
        <path fill="#FFFF76" d="M75.246 21.541c1.697 0 3.558-.534 4.57-2.036l-2.162-1.452a2.772 2.772 0 0 1-2.188.942c-1.05 0-2.32-.578-2.464-1.734h7.336c0-.258.044-.629.044-.862a5.18 5.18 0 0 0-10.36-.088 5.098 5.098 0 0 0 5.224 5.23zm0-7.826a2.087 2.087 0 0 1 2.1 1.78h-4.331a2.25 2.25 0 0 1 2.256-1.786l-.025.006zm16.613 5.683l-2.426-1.716a2.275 2.275 0 0 1-1.93 1.005 2.445 2.445 0 0 1-2.514-2.4 2.389 2.389 0 0 1 2.514-2.339 2.275 2.275 0 0 1 1.93 1.006l2.426-1.735a5.267 5.267 0 0 0-4.356-2.125c-2.872 0-5.45 2.037-5.45 5.192a5.462 5.462 0 0 0 9.806 3.112zm6.519 2.1a5.073 5.073 0 0 0 5.21-5.212 5.201 5.201 0 1 0-10.402 0 5.029 5.029 0 0 0 5.192 5.211zm0-7.487a2.282 2.282 0 1 1-2.25 2.275 2.219 2.219 0 0 1 2.25-2.275zm22.679-8.146v6.669a3.287 3.287 0 0 0-2.936-1.44c-2.57 0-4.846 2.037-4.846 5.255s2.275 5.192 4.846 5.192a3.3 3.3 0 0 0 2.936-1.458v1.257h2.96V5.865h-2.96zm-2.383 12.816a2.401 2.401 0 1 1 0-4.802 2.27 2.27 0 0 1 2.295 2.407 2.332 2.332 0 0 1-2.295 2.395zM65.736 33.767a2.555 2.555 0 1 1-5.11 0v-9.479h-3.193v9.479c0 3.344 2.702 5.487 5.745 5.487 3.042 0 5.707-2.143 5.707-5.487v-9.479h-3.143v9.479h-.006zm11.666-4.928c-1.195 0-2.3.637-2.897 1.672v-1.458h-2.98v10.013h2.98v-5.3c0-1.52.792-2.036 1.841-2.036 1.05 0 1.735.667 1.735 1.993v5.343h2.98v-5.984c.006-2.854-1.408-4.243-3.659-4.243zM83.7 29.053h2.961v10.013h-2.96zM93.87 28.839a5.198 5.198 0 1 0 5.212 5.192 5.029 5.029 0 0 0-5.211-5.192zm0 7.486a2.282 2.282 0 1 1 2.276-2.294 2.213 2.213 0 0 1-2.275 2.288v.006zm13.226-7.486c-1.195 0-2.3.637-2.898 1.672v-1.458h-2.98v10.013h2.98v-5.3c0-1.52.792-2.036 1.842-2.036s1.729.667 1.729 2v5.342h2.979v-5.99c.019-2.854-1.395-4.243-3.652-4.243z"/>
        <circle cx="85.184" cy="25.35" r="2.087" fill="#FFFF76"/>
        <path fill="#FFFF76" d="M110.15 11.572a5.029 5.029 0 0 0-1.439 1.113V11.27h-2.985v10.057h2.985v-3.991a4.293 4.293 0 0 1 .629-2.514 2.263 2.263 0 0 1 1.986-.943h.579v-2.804a3.897 3.897 0 0 0-1.754.497zm-49.562 5.67h2.087l2.608 4.085h3.476l-2.948-4.651a5.16 5.16 0 0 0 2.93-4.758 5.21 5.21 0 0 0-5.368-5.324h-5.934v14.733h3.143v-4.085h.006zm0-7.876h2.514a2.401 2.401 0 0 1 2.357 2.545 2.401 2.401 0 0 1-2.319 2.552h-2.514V9.366h-.038z"/>
    </g>
</svg>
