<svg xmlns="http://www.w3.org/2000/svg" width="115" height="32" viewBox="0 0 115 32">
    <g fill="#7C7C93" fill-rule="nonzero">
        <path d="M41.07 27.63C37.23 30.48 31.66 32 26.86 32c-6.72 0-12.77-2.49-17.35-6.66-.36-.33-.04-.77.4-.52 4.94 2.89 11.05 4.63 17.36 4.63 4.26 0 8.94-.89 13.24-2.73.65-.26 1.19.45.56.91"/>
        <path d="M42.67 25.8c-.49-.63-3.25-.3-4.49-.15-.38.04-.44-.29-.1-.52 2.2-1.55 5.8-1.11 6.22-.58.42.52-.11 4.15-2.17 5.89-.32.27-.62.12-.48-.23.47-1.17 1.51-3.78 1.02-4.41zm-4.4-11.64v-1.51c0-.23.17-.38.38-.38h6.73c.21 0 .39.16.39.38v1.29c0 .22-.18.5-.51.95l-3.48 5c1.3-.03 2.66.16 3.83.83.27.15.34.37.36.59v1.61c0 .22-.24.48-.5.34-2.07-1.09-4.82-1.21-7.11.01-.23.13-.48-.12-.48-.35V21.4c0-.24 0-.66.25-1.03l4.04-5.82h-3.51c-.22-.01-.39-.16-.39-.39zm-24.54 9.42h-2.05a.395.395 0 0 1-.37-.34V12.68c0-.21.17-.38.39-.38h1.91c.2.01.36.16.37.35v1.38h.04c.5-1.33 1.43-1.95 2.69-1.95 1.28 0 2.08.62 2.66 1.95.5-1.33 1.62-1.95 2.83-1.95.86 0 1.8.35 2.37 1.16.65.89.52 2.17.52 3.31l-.01 6.66c0 .21-.17.38-.39.38h-2.04a.383.383 0 0 1-.36-.38v-5.59c0-.45.04-1.56-.06-1.98-.15-.71-.61-.91-1.2-.91-.5 0-1.01.33-1.22.87-.21.53-.19 1.42-.19 2.02v5.58c0 .21-.18.38-.4.38h-2.04a.384.384 0 0 1-.37-.38v-5.59c0-1.18.19-2.91-1.26-2.91-1.47 0-1.41 1.69-1.41 2.91v5.59a.4.4 0 0 1-.41.38zm37.84-9.35c-1.51 0-1.6 2.07-1.6 3.36s-.02 4.04 1.58 4.04c1.58 0 1.66-2.22 1.66-3.58 0-.89-.04-1.96-.3-2.8-.23-.73-.69-1.02-1.34-1.02zm-.02-2.15c3.03 0 4.68 2.62 4.68 5.95 0 3.22-1.81 5.78-4.68 5.78-2.98 0-4.6-2.62-4.6-5.88 0-3.3 1.64-5.85 4.6-5.85zm8.62 11.5h-2.04a.384.384 0 0 1-.37-.38V12.64a.39.39 0 0 1 .39-.34h1.9c.18.01.33.13.37.29v1.62h.04c.57-1.45 1.37-2.13 2.79-2.13.91 0 1.82.33 2.39 1.24.54.85.54 2.27.54 3.29v6.64c-.02.19-.19.33-.39.33h-2.05a.376.376 0 0 1-.36-.33v-5.73c0-1.16.14-2.84-1.28-2.84-.5 0-.96.34-1.18.84-.29.65-.32 1.29-.32 2v5.68c-.03.22-.21.38-.43.38zm-23.62-1.94c-.37-.52-.77-.94-.77-1.91v-3.2c0-1.36.1-2.6-.9-3.54-.79-.75-2.09-1.02-3.09-1.02-1.94 0-4.11.74-4.57 3.15-.05.27.14.4.31.44l1.98.21c.18-.01.32-.19.35-.38.18-.83.87-1.23 1.65-1.23.42 0 .9.15 1.15.53.29.42.25 1 .25 1.49v.27c-1.19.13-2.74.22-3.85.71-1.28.56-2.18 1.69-2.18 3.36 0 2.14 1.34 3.21 3.06 3.21 1.46 0 2.26-.35 3.38-1.5.37.54.49.8 1.17 1.37.15.08.35.08.48-.05.41-.35 1.15-1.01 1.58-1.36.16-.14.13-.36 0-.55zm-4.02-.92c-.33.58-.84.93-1.41.93-.79 0-1.25-.6-1.25-1.49 0-1.75 1.56-2.07 3.04-2.07v.45c0 .8.02 1.47-.38 2.18zm-22.8.92c-.37-.52-.77-.94-.77-1.91v-3.2c0-1.36.1-2.6-.9-3.54-.78-.75-2.08-1.02-3.08-1.02-1.95 0-4.12.74-4.58 3.15-.05.27.14.4.3.44l1.99.21c.18-.01.31-.19.35-.38.17-.83.87-1.23 1.65-1.23.42 0 .9.15 1.15.53.29.42.25 1 .25 1.49v.27c-1.19.13-2.74.22-3.85.71-1.28.56-2.18 1.69-2.18 3.36 0 2.14 1.34 3.21 3.06 3.21 1.46 0 2.26-.35 3.38-1.5.37.54.49.8 1.17 1.37.15.08.35.08.48-.05.41-.35 1.15-1.01 1.58-1.36.16-.14.13-.36 0-.55zm-4.03-.92c-.33.58-.84.93-1.42.93-.79 0-1.24-.6-1.24-1.49 0-1.75 1.56-2.07 3.04-2.07v.45c0 .8.02 1.47-.38 2.18zm88.54.65c.02-.05.09-.09.14-.09.05 0 .12.02.19.05 1.02.51 2.05.78 2.84.78 1.12 0 1.86-.67 1.86-1.66 0-.78-.4-1.24-1.49-1.75-1.56-.71-2.05-.97-2.61-1.43-.72-.56-1.07-1.27-1.07-2.17 0-1.86 1.47-3.2 3.54-3.2 1.21 0 3 .58 3 .97 0 .05 0 .05-.05.16l-.42.85c-.05.07-.14.14-.21.14-.05 0-.09-.02-.19-.05-.88-.41-1.56-.6-2.19-.6-1.12 0-1.77.57-1.77 1.54 0 .44.16.85.46 1.13.33.3.33.3 2.44 1.31 1.72.83 2.33 1.59 2.33 2.97 0 1.95-1.49 3.27-3.7 3.27-1.16 0-2.49-.35-3.44-.9-.12-.07-.14-.11-.14-.21 0-.05 0-.05.02-.09l.46-1.02zm8.77-8.67c0-.23.02-.28.26-.28h1.23c.21 0 .26.05.26.28v10.48c0 .23-.19.4-.4.4h-.98c-.21 0-.36-.18-.36-.42l-.01-10.46zm11.23 1.75c-.07.12-.12.16-.19.16-.05 0-.12-.02-.19-.09-1.14-.84-1.6-1.05-2.4-1.05-1.86 0-2.81 1.47-2.81 4.33 0 2.91.86 4.35 2.58 4.35.93 0 1.42-.21 2.74-1.14.07-.05.12-.07.16-.07.07 0 .12.05.16.14l.35.88c.02.07.07.21.07.23 0 .12-.12.26-.37.44-.95.7-2.12 1.09-3.26 1.09-2.77 0-4.39-2.12-4.39-5.65 0-3.81 1.79-6.16 4.72-6.16 1 0 1.98.3 2.84.91.37.26.51.42.51.58l-.02.14-.5.91zm-32.07 1.18c0-1.32 0-3.55-2.99-3.55-1.17 0-2.18.79-2.69 1.78-.36-1.28-1.15-1.78-2.46-1.78-1.08 0-2.23.56-2.72 1.55v-.91c0-.2-.16-.37-.37-.38H69.9c-.21 0-.37.15-.39.34v10.51c0 .2.16.36.37.38h1.03c.21 0 .38-.15.39-.34v-7.44.06c0-1.76 1.3-2.26 2.12-2.26 1.25 0 1.48 1.02 1.52 1.85v7.83c.04.17.2.3.41.32h1c.2 0 .37-.13.39-.28V15.8c.03-1.71 1.3-2.21 2.12-2.21 1.28 0 1.49 1.06 1.52 1.91v7.77c0 .15.14.27.31.3v.01h1.09c.21 0 .37-.12.39-.28v-7.67zm2.33 6.29c.22.58 1.06 1.78 2.76 1.78 1.59 0 2.52-.56 3-1.55v.91c0 .2.16.37.36.38h1.01c.2 0 .37-.15.39-.34V12.58c0-.2-.16-.37-.37-.38h-1.01c-.2 0-.37.15-.39.34v7.44-.06c0 1.76-1.94 2.26-2.75 2.26-1.23 0-1.45-1.02-1.49-1.85V12.5c-.04-.17-.2-.3-.4-.31h-.98c-.2 0-.37.13-.38.28v7.51s.04 1.35.25 1.94zm20-14.18h-1.23c-.23 0-.26.04-.26.25v1.24c0 .21.05.25.26.25h1.23c.23 0 .26-.04.26-.25V8c0-.21-.05-.26-.26-.26zm-35.07-.01h9.77v1.72h-9.77V7.73zm0-2.58h9.77v1.72h-9.77V5.15zm0-2.57h9.77V4.3h-9.77V2.58zm0-2.58h9.77v1.72h-9.77V0zm10.62 7.73h9.77v1.72h-9.77V7.73zm0-2.58h9.77v1.72h-9.77V5.15zm10.63 2.58h9.77v1.72h-9.77V7.73zm0-2.58h9.77v1.72h-9.77V5.15zm0-2.57h9.77V4.3h-9.77V2.58z"/>
    </g>
</svg>
