<svg xmlns="http://www.w3.org/2000/svg" width="109" height="24" viewBox="0 0 109 24">
    <path fill="#7C7C93" fill-rule="nonzero" d="M.049 21.816h7.126v2.163H.049v-2.163zm0-2.8h7.126v2.162H.049v-2.163zm0-2.811h7.126v2.162H.049v-2.162zm0-2.81h7.126v2.162H.049v-2.163zm0-2.802h7.126v2.163H.049v-2.163zm7.993 11.223h7.126v2.163H8.042v-2.163zm0-2.8h7.126v2.162H8.042v-2.163zm0-2.811h7.126v2.162H8.042v-2.162zm7.992 5.611h7.127v2.163h-7.127v-2.163zm0-2.8h7.127v2.162h-7.127v-2.163zm0-2.811h7.127v2.162h-7.127v-2.162zm0-2.81h7.127v2.162h-7.127v-2.163zm0-2.802h7.127v2.163h-7.127v-2.163zm0-2.81h7.127v2.163h-7.127V7.783zm0-2.81h7.127v2.162h-7.127V4.973zm7.993 16.843h7.126v2.163h-7.126v-2.163zm0-2.8h7.126v2.162h-7.126v-2.163zm0-2.811h7.126v2.162h-7.126v-2.162zm0-2.81h7.126v2.162h-7.126v-2.163zm0-2.802h7.126v2.163h-7.126v-2.163zm7.993 11.223h7.126v2.163H32.02v-2.163zm0-2.8h7.126v2.162H32.02v-2.163zm0-2.811h7.126v2.162H32.02v-2.162zm0-2.81h7.126v2.162H32.02v-2.163zm0-2.81h7.126v2.162H32.02v-2.163zm0-2.802h7.126v2.163H32.02V7.783zm0-2.81h7.126v2.162H32.02V4.973zm0-2.81h7.126v2.162H32.02V2.162zM41.948.008h5.346c5.384 0 5.886 1.88 5.886 8.86v7.126c0 6.14-1.232 7.993-6.479 7.993h-4.753V.009zm3.239 21.178h1.67c2.454 0 2.855-1.296 2.855-5.411v-8.23c0-3.55-.3-4.745-3.13-4.745h-1.404l.009 18.386zM54.475.009h9.07v2.847h-5.83v7.518h5.401v2.81h-5.402v7.948h5.83v2.847h-9.069V.009zm10.375 0h9.07v2.847h-5.831v7.518h5.401v2.81H68.09v7.948h5.83v2.847h-9.07V.009zm22.245 0h9.07v2.847h-5.831v7.518h5.401v2.81h-5.401v7.948h5.83v2.847h-9.07V.009zm-11.88 21.169L82.678 2.81h-7.463V0h10.584v2.81l-7.336 18.358H85.8v2.81H75.215v-2.8zM97.46.009h5.183c4.845 0 5.191 1.232 5.191 6.478 0 3.221-.3 4.79-3.029 5.621 2.254.228 3.03 1.414 3.03 3.668v5.21c0 .867.008 1.989.21 2.984h-3.24c-.338-.603-.21-1.187-.21-2.154v-5.41c0-2.263-.429-2.802-2.619-2.802h-1.268V23.97H97.47V.01h-.01zm3.239 10.584h1.004c2.628 0 3.02-.319 3.02-3.905 0-3.55-.32-3.869-2.372-3.869h-1.652v7.774z"/>
</svg>
