<svg xmlns="http://www.w3.org/2000/svg" width="122" height="40" viewBox="0 0 122 40">
    <g fill="none" fill-rule="nonzero">
        <path fill="#7C7C93" d="M34.013 17.88L3.925.771C2.639.05 1.489.118.79.795c-.503.473-.755 1.24-.755 2.234v34.133c0 .991.295 1.761.755 2.234.722.7 1.849.755 3.135.023l30.088-17.107c2.163-1.205 2.163-3.193 0-4.433z"/>
        <path fill="#FFF" d="M34.013 18.103L3.925.996C1.758-.22 0 .792 0 3.26v-.226C0 .554 1.761-.463 3.925.77l30.088 17.107c1.127.631 1.668 1.489 1.602 2.344-.048-.764-.566-1.532-1.602-2.118z" opacity=".1"/>
        <path fill="#D3D3E2" d="M31.034 24.035c.364-1.276.546-2.597.54-3.924.002-7.485-5.717-13.729-13.173-14.383-7.456-.654-14.175 4.5-15.477 11.87C1.623 24.968 6.17 32.11 13.4 34.05l17.635-10.015z"/>
        <circle cx="17.142" cy="20.111" r="9.021" fill="#9999AD"/>
        <path fill="#FAFAFA" d="M17.142 15.376v5.55a2.136 2.136 0 0 0-1.059-.295 2.098 2.098 0 1 0 0 4.197 2.174 2.174 0 0 0 2.189-2.098v-5.1h2.03v-2.264h-3.16v.01z"/>
        <path fill="#7C7C93" d="M46.397 11.21c0-3.207 2.733-5.821 5.94-5.821a5.58 5.58 0 0 1 3.98 1.605l-1.13 1.13a4.025 4.025 0 0 0-2.85-1.13 4.277 4.277 0 0 0 0 8.553c1.545 0 2.375-.594 2.971-1.187.514-.552.828-1.261.89-2.013h-3.806v-1.605h5.346c.052.333.072.67.06 1.006 0 1.188-.356 2.675-1.365 3.744-1.01 1.069-2.317 1.663-4.098 1.663a5.997 5.997 0 0 1-5.938-5.945zm15.741-1.675a3.743 3.743 0 1 0 .116 7.485 3.743 3.743 0 0 0-.116-7.485zm0 6.057A2.196 2.196 0 0 1 60 13.328a2.158 2.158 0 0 1 2.138-2.264 2.196 2.196 0 0 1 2.139 2.264c-.06 1.326-1.01 2.277-2.139 2.277v-.013zm8.2-6.057a3.743 3.743 0 1 0 .115 7.485 3.743 3.743 0 0 0-.116-7.485zm0 6.057a2.196 2.196 0 0 1-2.14-2.264 2.158 2.158 0 0 1 2.14-2.264 2.27 2.27 0 0 1 0 4.541v-.013zm10.155-5.806v.594h-.06a2.634 2.634 0 0 0-1.96-.845c-1.902 0-3.623 1.662-3.623 3.8a3.703 3.703 0 0 0 3.623 3.747 2.634 2.634 0 0 0 1.96-.833h.06v.536c0 1.426-.772 2.199-2.012 2.199a2.035 2.035 0 0 1-1.902-1.366l-1.427.593a3.522 3.522 0 0 0 3.326 2.2c1.96 0 3.565-1.13 3.565-3.92V9.786h-1.55zm-1.902 5.822c-1.13 0-2.078-.951-2.078-2.265 0-1.313.951-2.317 2.078-2.317 1.127 0 2.013.951 2.013 2.317-.05 1.311-.883 2.262-2.01 2.262l-.003.003zm4.574-9.812h1.663v11.05h-1.663V5.795zm6.178 9.812a1.94 1.94 0 0 1-1.841-1.13L92.55 12.4l-.179-.415c-.297-.833-1.258-2.375-3.207-2.375-1.95 0-3.565 1.54-3.565 3.738a3.655 3.655 0 0 0 3.743 3.734 3.821 3.821 0 0 0 3.148-1.663l-1.306-.833a2.174 2.174 0 0 1-1.842 1.019v.003zm-.118-4.574a1.653 1.653 0 0 1 1.427.772l-3.387 1.427a2.038 2.038 0 0 1 1.96-2.202v.003zM46.28 24.511h1.306l3.565 6.236h.06l3.565-6.236h1.306v10.216h-1.306v-6.058l.06-1.723h-.06l-3.208 5.582h-.772l-3.208-5.582h-.06l.06 1.723v6.058H46.28V24.511zm16.395 10.216v-.95h-.06c-.357.653-1.258 1.187-2.199 1.187-1.781 0-2.674-1.188-2.674-2.911v-4.277h1.306v4.04c0 1.427.711 1.96 1.723 1.96 1.13 0 1.841-1.07 1.841-2.138v-3.86h1.306v6.952h-1.258l.015-.003zm2.139-1.781L66 32.47a1.955 1.955 0 0 0 1.902 1.306c.833 0 1.426-.415 1.426-1.006 0-.357-.236-.712-.95-.951l-1.427-.357c-.654-.179-1.842-.712-1.842-1.96s1.306-2.078 2.793-2.078c1.187 0 2.264.536 2.674 1.605l-1.13.475a1.643 1.643 0 0 0-1.604-.95c-.712 0-1.367.357-1.367.89 0 .415.358.712.951.833l1.366.357c1.366.357 1.902 1.187 1.902 2.013 0 1.257-1.13 2.198-2.732 2.198-1.78.119-2.732-.89-3.147-1.902l-.002.003zm6.593-7.603a.95.95 0 1 1 .951.951 1.021 1.021 0 0 1-.95-.95zm.237 9.387v-7.012h1.305v7.009h-1.305v.003zm2.435-3.505c0-2.138 1.484-3.743 3.565-3.743 1.663 0 2.614 1.006 3.09 2.012l-1.188.476a2.013 2.013 0 0 0-1.96-1.306c-1.13 0-2.199 1.006-2.199 2.496s1.07 2.495 2.199 2.495a2.08 2.08 0 0 0 2.012-1.305l1.188.475a3.233 3.233 0 0 1-3.09 2.013c-2.138.118-3.622-1.485-3.622-3.623l.005.01zM99.859 5.804h-3.98v11.049h1.663v-4.219h2.317c1.842 0 3.623-1.306 3.623-3.444s-1.842-3.386-3.623-3.386zm0 5.346h-2.375V7.348h2.375a1.925 1.925 0 0 1 1.96 1.902 1.962 1.962 0 0 1-1.96 1.9zm6.179 5.703V5.803h-1.663v11.05h1.663zm7.424 0v-4.219c0-1.96-1.485-3.09-3.387-3.09-1.187 0-2.435.537-2.97 1.724l1.484.594a1.58 1.58 0 0 1 1.484-.833c.833 0 1.723.536 1.723 1.426v.119a3.618 3.618 0 0 0-1.723-.416c-1.605 0-3.208.891-3.208 2.496 0 1.484 1.306 2.435 2.732 2.435 1.13 0 1.724-.475 2.078-1.069h.06v.833H113.463zm-3.565-1.258c-.536 0-1.306-.297-1.306-.951 0-.833.951-1.187 1.723-1.187a3.205 3.205 0 0 1 1.485.357 1.89 1.89 0 0 1-1.902 1.791v-.01zm9.326-5.809L117.32 14.6h-.06l-1.96-4.813h-1.776l2.97 6.712-1.662 3.744h1.71l4.529-10.456h-1.849z"/>
    </g>
</svg>
