<svg xmlns="http://www.w3.org/2000/svg" xmlns:xlink="http://www.w3.org/1999/xlink" width="24" height="24" viewBox="0 0 24 24">
    <defs>
        <path id="a" d="M21.366 3H2.634A2.634 2.634 0 0 0 0 5.634v12.909a2.634 2.634 0 0 0 2.634 2.634h18.732A2.634 2.634 0 0 0 24 18.543V5.634A2.634 2.634 0 0 0 21.366 3zm-1.054 2.108l-7.932 8.295a.53.53 0 0 1-.76 0L3.688 5.108h16.624zM2.108 16.45V6.506l4.373 4.571-4.373 5.374zm.59 2.614l5.252-6.452 2.15 2.244a2.636 2.636 0 0 0 3.805 0l1.989-2.079 5.377 6.286H2.697zm19.191-2.516l-4.534-5.304 4.536-4.742-.002 10.046z"/>
    </defs>
    <g fill="none" fill-rule="evenodd">
        <mask id="b" fill="#fff">
            <use xlink:href="#a"/>
        </mask>
        <use fill="#000" xlink:href="#a"/>
        <g fill="#000" mask="url(#b)">
            <path d="M0 0h24v24H0z"/>
        </g>
    </g>
</svg>
