<svg xmlns="http://www.w3.org/2000/svg" width="208" height="208" viewBox="0 0 208 208">
    <g fill="none" fill-rule="evenodd">
        <path fill="#FFFF76" d="M177.499 38.676c-7.056-3.652-11.085-4.051-14.318-4.374-1.793-.178-3.091-.305-5.08-1.067-.812-.314-1.817-.89-2.882-1.5-5.613-3.213-11.772-5.766-20.282-2.103a78.112 78.112 0 0 0-31.747-3.202c-15.235 1.598-28.97 7.47-40.168 16.28-9.587-.127-15.663 3.805-18.418 5.592-3.959 2.567-6.155 5.43-8.096 7.954-1.915 2.497-3.724 4.855-7.678 7.825-16.06 12.073-13.607 22.97-10.715 28.392l.394.756c2.051 3.974 6.854 13.276 14.89 15.492.068 1.095.148 2.19.263 3.29 2.074 19.675 11.34 36.851 24.908 49.24.351 9.365 6.57 17.923 16.06 20.783a22.633 22.633 0 0 0 18.486-2.442 78.13 78.13 0 0 0 26.405 1.72 78.16 78.16 0 0 0 26.138-7.46c.145.045.28.109.428.151 5.795 1.74 11.918 1.127 17.243-1.728 5.33-2.853 9.223-7.604 10.97-13.376.984-3.259 1.19-6.62.69-9.888 10.663-14.923 16.131-33.625 14.06-53.28a78.035 78.035 0 0 0-3.597-16.516c2.704-3.961 4.063-8.985 4.871-12.008.224-.837.428-1.604.632-2.263 2.332-7.598 1.89-18.323-13.457-26.268"/>
        <path fill="#000075" d="M116.561 45.955a2.22 2.22 0 0 0-3.164-.504c-.092.07-9.446 6.954-20.237 2.173-1.144-.51-2.478.03-2.974 1.218-.496 1.182.034 2.556 1.182 3.064 3.44 1.527 6.738 2.094 9.74 2.094 8.482 0 14.62-4.526 14.966-4.788 1.008-.76 1.228-2.217.487-3.257M180.328 84.63c-.327-1.191-1.54-1.885-2.708-1.543-1.165.334-1.844 1.572-1.514 2.762a69.245 69.245 0 0 1 2.137 11.342c1.5 14.564-1.589 28.888-8.931 41.423-.623 1.06-.283 2.435.757 3.068.351.215.74.318 1.123.318.749 0 1.475-.39 1.885-1.09 7.836-13.371 11.13-28.652 9.528-44.187a73.458 73.458 0 0 0-2.277-12.093M74.275 47c.409 0 .822-.11 1.197-.338 8.773-5.41 18.475-8.698 28.829-9.78a68.898 68.898 0 0 1 20.969 1.02c1.22.243 2.428-.532 2.682-1.75a2.255 2.255 0 0 0-1.765-2.663 73.12 73.12 0 0 0-22.361-1.085c-11.045 1.15-21.392 4.66-30.755 10.432a2.246 2.246 0 0 0-.73 3.103A2.278 2.278 0 0 0 74.276 47M43.735 111.325a81.845 81.845 0 0 1-.2-2.227c-.091-1.243-1.19-2.202-2.428-2.089a2.26 2.26 0 0 0-2.1 2.417c.054.786.126 1.575.21 2.369 1.65 15.626 8.165 29.97 18.844 41.477a2.271 2.271 0 0 0 3.21.127c.92-.846.978-2.277.126-3.195-10.009-10.788-16.116-24.232-17.662-38.88M134.951 167.147c-.809.307-1.638.566-2.458.84-.095-.014-.19-.036-.288-.027-.288.031-.53.171-.708.367a72.34 72.34 0 0 1-2.632.762 1.116 1.116 0 0 0-2.13.561l.004.014c-.748.18-1.508.316-2.263.47.01-.085.032-.165.023-.252a1.117 1.117 0 0 0-1.234-.989 1.113 1.113 0 0 0-1 1.223c.015.16.07.305.146.436-.823.14-1.654.236-2.484.348.075-.17.124-.354.101-.553a1.12 1.12 0 0 0-1.233-.988 1.113 1.113 0 0 0-1 1.222c.022.223.128.412.263.575-.052.004-.102.013-.151.02-.814.085-1.627.12-2.443.176.072-.167.115-.345.094-.54a1.12 1.12 0 0 0-1.233-.988 1.113 1.113 0 0 0-1 1.223c.015.162.071.31.15.443-.805.031-1.607.016-2.41.02.01-.076.032-.151.023-.232a1.12 1.12 0 0 0-1.234-.988 1.112 1.112 0 0 0-1 1.216c-.786-.02-1.568-.078-2.353-.127a1.103 1.103 0 1 0-1.924-.125 68.339 68.339 0 0 1-3.989-.474 2.23 2.23 0 0 0-2.562 1.864 2.229 2.229 0 0 0 1.882 2.539c3.59.545 7.225.817 10.87.817 2.53 0 5.068-.134 7.599-.396a72.522 72.522 0 0 0 18.177-4.294 2.224 2.224 0 0 0 1.299-2.876 2.256 2.256 0 0 0-2.902-1.287"/>
        <path fill="#000075" d="M164.902 156.78a13.547 13.547 0 0 1-2.738 4.935 1.114 1.114 0 0 0-1.185-.834c-.62.066-1.07.622-1.007 1.243.052.475.39.846.824.968a13.63 13.63 0 0 1-2.458 1.724 13.418 13.418 0 0 1-10.312 1.037c-1.381-.415-2.632-1.089-3.785-1.891.004-.061.025-.12.018-.183a1.132 1.132 0 0 0-1.242-1.008c-.072.009-.133.043-.198.063a13.33 13.33 0 0 1-1.908-2.192c.413-.201.682-.637.63-1.123a1.128 1.128 0 0 0-1.24-1.006c-.227.025-.42.129-.584.264-.47-.856-.935-1.683-1.395-2.47.336-.228.548-.617.503-1.046a1.132 1.132 0 0 0-1.241-1.008 1.148 1.148 0 0 0-.416.13 72.1 72.1 0 0 0-1.532-2.363 1.11 1.11 0 0 0 .472-1.02 1.128 1.128 0 0 0-1.24-1.005c-.203.02-.375.108-.528.22a38.397 38.397 0 0 0-1.833-2.27c.553-.122.944-.626.885-1.202a1.13 1.13 0 0 0-1.242-1.008c-.462.05-.828.373-.959.789-1.643-1.657-3.323-2.905-5.084-3.815-.169-.484-.632-.816-1.164-.76-.106.012-.199.054-.294.093-2.894-1.153-6.045-1.462-9.715-1.074-3.061.324-5.847 1.32-8.373 3.004-.009.004-.018.014-.027.02-5.479 3.666-9.722 10.568-12.856 20.86a13.548 13.548 0 0 1-16.88 9.045c-3.264-.99-5.876-3.119-7.553-5.813.307-.23.5-.597.458-1.006a1.129 1.129 0 0 0-1.242-1.005c-.083.009-.155.047-.234.074a13.517 13.517 0 0 1-.942-6.87c.147.047.305.07.47.052a1.13 1.13 0 0 0 1.004-1.241 1.114 1.114 0 0 0-1.033-.985c.004-.023.009-.046.015-.066.206-.691.502-1.636.883-2.775.233.233.55.373.903.337a1.13 1.13 0 0 0-.237-2.25c-.002.003-.005.003-.007.003.316-.888.67-1.846 1.068-2.877.232.267.571.432.948.391a1.126 1.126 0 1 0-.214-2.244c.358-.884.738-1.797 1.15-2.744.226.188.522.29.838.258a1.13 1.13 0 0 0 1.005-1.243 1.11 1.11 0 0 0-.966-.979c.386-.845.799-1.71 1.228-2.585.158.059.327.092.505.074a1.129 1.129 0 0 0 1.005-1.24 1.106 1.106 0 0 0-.515-.816c.467-.904.957-1.815 1.467-2.733.517-.146.88-.63.822-1.184-.007-.063-.038-.115-.054-.174 1.76-3.046 3.767-6.113 6.03-9.038.223.346.618.565 1.056.518a1.129 1.129 0 0 0 1.004-1.24 1.122 1.122 0 0 0-.736-.932c2.348-2.843 4.946-5.503 7.818-7.808-.093.736-.073 1.496.164 2.296.623 2.113 2.127 4.027 4.106 5.668.147.278.405.48.71.56 4.76 3.585 11.837 5.653 16.83 5.128 2.718-.287 5.786-1.466 8.65-3.2.03-.002.059.012.09.01.396-.044.705-.297.872-.627 1.977-1.308 3.815-2.872 5.33-4.585.02-.003.04.009.06.006a1.13 1.13 0 0 0 1.005-1.243c-.002-.018-.011-.031-.016-.05 1.425-1.886 2.436-3.902 2.772-5.92.066-.387.059-.746.052-1.103.59.332 1.167.68 1.743 1.037-.355.221-.58.626-.533 1.069.065.621.62 1.071 1.242 1.006.528-.055.912-.473.98-.979a60.578 60.578 0 0 1 5.123 3.876c.01.009.012.02.02.03.026.02.105.087.231.185a72.19 72.19 0 0 1 3.077 2.766 1.11 1.11 0 0 0-.747 1.162 1.126 1.126 0 0 0 1.239 1.005c.451-.047.808-.36.946-.764 9.207 9.246 15.282 19.834 17.176 23.364a13.524 13.524 0 0 1 1.564 5.302 1.109 1.109 0 0 0-.903-.336 1.13 1.13 0 0 0 .235 2.248c.282-.031.522-.171.7-.363a13.656 13.656 0 0 1-.558 3.475zm-13.284-35.033c2.19-.04 4.706-.48 7.517-1.636a2.26 2.26 0 0 0 1.23-2.95 2.252 2.252 0 0 0-2.944-1.231c-7.787 3.2-12.347-.468-12.519-.613-.06-.052-.138-.068-.2-.113-9.134-7.654-20.563-13.384-33.732-11.996-14.06 1.48-24.583 10.59-32.14 20.912-.926.682-7.908 5.528-18.42 4.807-1.267-.066-2.319.859-2.405 2.104a2.257 2.257 0 0 0 2.1 2.407c.833.057 1.643.084 2.433.084 4.51 0 8.346-.852 11.386-1.912-6.09 10.398-9.42 20.494-10.508 24.13-2.853 9.517 2.567 19.603 12.077 22.483 1.709.515 3.454.777 5.208.777.627 0 1.26-.036 1.887-.102a18.057 18.057 0 0 0 15.41-12.73c3.994-13.12 9.687-19.89 17.407-20.704 8.664-.898 13.49 2.82 20.619 15.958a17.93 17.93 0 0 0 10.702 8.76 17.917 17.917 0 0 0 13.752-1.384 17.96 17.96 0 0 0 8.747-10.714 17.978 17.978 0 0 0-1.386-13.77c-1.858-3.468-7.53-13.342-16.221-22.567zM97.524 63.517c-.926-.805-2.275-.652-3.031.334-.76.984-.625 2.443.288 3.262.167.148 4.1 3.754 4.896 11.808.115 1.193 1.056 2.079 2.153 2.079.076 0 .152-.005.228-.014 1.192-.134 2.057-1.276 1.93-2.55-.991-10.068-6.24-14.724-6.464-14.919M116.85 60.815c-.193.227-4.754 5.659-3.69 15.212.127 1.132 1.14 1.973 2.322 1.973.082 0 .164-.004.245-.013 1.282-.128 2.214-1.211 2.079-2.42-.853-7.642 2.54-11.821 2.673-11.982.813-.945.657-2.33-.345-3.096-1.002-.764-2.473-.616-3.283.326M48.12 92.582c.051-.474.094-1.013.144-1.604.371-4.559.992-12.192 7.525-17.844 5.414-4.686 11.565-5.08 11.619-5.083a2.247 2.247 0 0 0 2.138-2.345 2.24 2.24 0 0 0-2.359-2.126 12.57 12.57 0 0 0-1.029.105c.034-.125.052-.255.038-.391a1.125 1.125 0 0 0-1.238-.996 1.122 1.122 0 0 0-1.001 1.23c.022.198.105.368.216.52-2.835.642-7.233 2.155-11.34 5.71a24.43 24.43 0 0 0-3.703 4.002 1.112 1.112 0 0 0-1.141-.687 1.121 1.121 0 0 0-1.002 1.229c.06.57.547.978 1.11.982a24.686 24.686 0 0 0-1.378 2.542 1.122 1.122 0 0 0-.497-.07 1.12 1.12 0 0 0-1.002 1.232c.043.4.304.713.644.875-.338.908-.62 1.806-.853 2.68a1.112 1.112 0 0 0-.559-.1 1.123 1.123 0 0 0-1.001 1.228c.06.56.529.96 1.078.983-.448 2.287-.622 4.355-.752 5.964-.045.55-.086 1.05-.133 1.49-.509 4.74-1.546 7.622-5.353 8.331-5.158.978-9.622-7.649-11.297-10.889l-.452-.861a8.138 8.138 0 0 1-.9-2.825c.19.437.634.728 1.136.674a1.118 1.118 0 0 0 1.002-1.229 1.125 1.125 0 0 0-1.238-.995 1.11 1.11 0 0 0-.973.917c-.14-3.007 1.475-5.919 3.75-8.504.233.296.593.484.996.441a1.122 1.122 0 0 0 1.002-1.228 1.101 1.101 0 0 0-.489-.792 40.08 40.08 0 0 1 3.838-3.256c.266-.2.496-.39.748-.585.18.455.632.764 1.146.71a1.12 1.12 0 0 0 1.001-1.231 1.1 1.1 0 0 0-.515-.808 40.455 40.455 0 0 0 4.563-4.531 1.096 1.096 0 0 0-.04.42c.065.616.619 1.061 1.238.996a1.12 1.12 0 0 0 1.001-1.228 1.124 1.124 0 0 0-1.238-.996c-.137.013-.265.06-.382.118a93.799 93.799 0 0 0 1.843-2.33l.219-.279c.105.02.211.043.324.031a1.12 1.12 0 0 0 1.002-1.23 1.153 1.153 0 0 0-.106-.34c1.215-1.484 2.47-2.778 4.37-4.01.231.286.585.467.98.427a1.122 1.122 0 0 0 1.003-1.231c-.014-.114-.059-.217-.102-.318 4.057-2.253 9.282-3.867 16.493-2.461-.462.179-.775.63-.72 1.143.064.613.618 1.06 1.237.996a1.122 1.122 0 0 0 1.002-1.23 1.095 1.095 0 0 0-.347-.677c.865.202 1.76.455 2.682.748a1.111 1.111 0 0 0 1.573.55 51.06 51.06 0 0 1 5.57 2.435c-.048.143-.07.3-.052.459a1.123 1.123 0 0 0 2.006.566c.794.438 1.589.875 2.417 1.374a2.262 2.262 0 0 0 3.091-.756 2.226 2.226 0 0 0-.76-3.073c-19.84-11.923-31.488-7.255-38.53-2.701-3.286 2.126-5.056 4.424-6.929 6.857-1.911 2.481-4.077 5.299-8.498 8.61-12.63 9.469-12.078 17.449-9.387 22.475l.418.806C25.124 95.724 29.921 105 37.4 105a9.2 9.2 0 0 0 1.722-.163c7.844-1.462 8.654-9.025 8.998-12.255M175.911 43.287c-6.292-3.238-9.696-3.573-12.701-3.87-1.987-.195-3.702-.363-6.265-1.343-1.143-.433-2.298-1.091-3.52-1.788-5.825-3.314-13.078-7.436-27.707 6.147a2.23 2.23 0 0 0-.105 3.174 2.28 2.28 0 0 0 3.205.104 59.012 59.012 0 0 1 3.765-3.222c-.004.063-.025.126-.018.193a1.131 1.131 0 0 0 1.248.998 1.124 1.124 0 0 0 1.009-1.234 1.112 1.112 0 0 0-.89-.966c8.37-6.032 12.607-3.927 16.914-1.478-.172.22-.265.501-.234.8a1.13 1.13 0 0 0 1.246 1c.44-.045.782-.34.93-.724.816.438 1.649.856 2.526 1.19 1.382.527 2.559.843 3.647 1.072-.034 0-.065-.01-.1-.009a1.127 1.127 0 0 0-1.009 1.234 1.133 1.133 0 0 0 1.248 1.002 1.127 1.127 0 0 0 1.009-1.236 1.108 1.108 0 0 0-.642-.876c1.046.198 1.994.301 2.922.393-.012.083-.035.162-.025.247a1.133 1.133 0 0 0 1.247 1.002c.54-.058.93-.487.987-1.002 2.293.31 4.88.946 9.222 3.18.11.055.206.114.315.172a1.125 1.125 0 0 0 1.227.944c.114-.011.213-.056.31-.097 6.09 3.595 7.76 7.277 7.78 10.577-.047-.002-.088-.018-.136-.013a1.126 1.126 0 0 0-1.009 1.235c.055.512.454.888.941.97a16.202 16.202 0 0 1-.442 1.75c-.107.347-.215.729-.327 1.126a1.113 1.113 0 0 0-.945-.377 1.124 1.124 0 0 0-1.01 1.233 1.131 1.131 0 0 0 1.248 1c.08-.009.145-.045.218-.067-.327 1.2-.66 2.368-1.012 3.466a1.126 1.126 0 0 0-1.225-.93 1.126 1.126 0 0 0-1.01 1.236 1.127 1.127 0 0 0 1.246.997c.265-.027.488-.153.662-.326-.46 1.328-.96 2.523-1.524 3.507a1.124 1.124 0 0 0-2.166.523c.06.56.529.96 1.077.985-.936 1.006-2.039 1.496-3.4 1.2-3.356-.737-4.88-2.528-7.756-7.533-.647-1.124-1.134-2.083-1.572-2.939-1.558-3.053-2.679-4.978-6.113-7.434a1.06 1.06 0 0 0 .077-.508 1.128 1.128 0 0 0-1.245-1 1.116 1.116 0 0 0-.635.304 66.227 66.227 0 0 0-3.456-2.017 24.667 24.667 0 0 0-1.915-.942c0-.038.016-.072.012-.11a1.133 1.133 0 0 0-1.248-1c-.272.03-.501.162-.678.342-4.632-1.642-8.676-1.629-10.535-1.496.455-.185.762-.632.707-1.14a1.13 1.13 0 0 0-1.245-.999 1.13 1.13 0 0 0-1.012 1.236c.053.487.42.858.878.963-.229.025-.374.048-.41.054a2.25 2.25 0 0 0-1.876 2.577c.202 1.225 1.34 2.051 2.601 1.858.062-.011 6.131-.932 12.52 2.584 1.606.883 2.872 1.635 3.908 2.318-2.529.128-5.382.935-8.017 3.224a2.232 2.232 0 0 0-.211 3.17 2.273 2.273 0 0 0 1.705.766 2.27 2.27 0 0 0 1.495-.56c3.892-3.372 8.676-1.864 10.04-1.33.196.367.393.753.607 1.169a69.03 69.03 0 0 0 1.673 3.13c2.917 5.079 5.24 8.498 10.72 9.7a9.137 9.137 0 0 0 1.982.227c6.931 0 9.34-8.94 10.828-14.461.24-.888.458-1.71.676-2.409 2.703-8.748-.973-15.566-11.232-20.843M94.264 99c.459 0 .924-.137 1.327-.412.554-.384 13.73-9.35 29.253-2.94 1.15.475 2.477-.033 2.97-1.133.495-1.1-.034-2.377-1.182-2.85-17.942-7.423-33.071 2.97-33.709 3.417-1.004.705-1.223 2.06-.488 3.026a2.29 2.29 0 0 0 1.829.892M153.868 99.365a2.872 2.872 0 0 1-3.16-2.557 2.874 2.874 0 1 1 3.16 2.557zm-3.57-11.3c-6.317.661-10.899 6.321-10.234 12.637.662 6.315 6.322 10.899 12.638 10.234 6.315-.662 10.899-6.322 10.234-12.638-.665-6.317-6.322-10.899-12.638-10.234zM72.183 101.657a2.874 2.874 0 0 1 3.158 2.56 2.874 2.874 0 0 1-2.557 3.16 2.875 2.875 0 1 1-.6-5.72zm-.483 17.279c6.318-.665 10.899-6.322 10.236-12.638-.664-6.315-6.324-10.899-12.639-10.234-6.315.665-10.896 6.322-10.233 12.638.664 6.315 6.321 10.899 12.636 10.234zM134.471 82.155c.766.95 2.2 1.123 3.189.396 9.386-6.94 19.761-3.245 20.239-3.066 1.168.435 2.482-.113 2.943-1.232.459-1.116-.116-2.38-1.282-2.82-.398-.15-7.496-2.742-15.839-.568a25.758 25.758 0 0 0-8.836 4.237c-.994.735-1.178 2.1-.414 3.053"/>
        <path fill="#000075" d="M55.526 93.174a2.285 2.285 0 0 0 3.22.298c9.167-7.63 19.731-4.114 20.213-3.956 1.188.43 2.493-.206 2.911-1.398a2.29 2.29 0 0 0-1.396-2.919c-.178-.064-1.688-.579-4.035-.913-4.795-.684-13.077-.607-20.614 5.663a2.296 2.296 0 0 0-.299 3.225M62.168 76.675C62.522 77.5 63.355 78 64.236 78c.284 0 .572-.051.85-.162 5.198-2.036 10.373-1.509 10.417-1.503 1.236.14 2.338-.697 2.481-1.869.146-1.17-.733-2.232-1.958-2.369-.259-.03-6.34-.674-12.64 1.795-1.142.446-1.687 1.694-1.218 2.783M72.895 165.006a1 1 0 1 0 .209 1.99 1 1 0 0 0-.209-1.99M70.897 161.006a1 1 0 1 0 .206 1.989 1 1 0 0 0-.206-1.99M74.896 161.006a1 1 0 1 0 .207 1.988 1 1 0 0 0-.207-1.988M72.105 157.994a1 1 0 1 0-.21-1.988 1 1 0 0 0 .21 1.988M77.995 156.896a1 1 0 1 0-1.989.208 1 1 0 0 0 1.989-.208M81.995 156.896a1 1 0 1 0-1.989.208 1 1 0 0 0 1.989-.208M86.994 155.896a1 1 0 1 0-1.987.21 1 1 0 0 0 1.987-.21M90.994 155.897a1.002 1.002 0 0 0-1.099-.892 1 1 0 1 0 1.1.892M94.895 154.005a1 1 0 1 0 .212 1.99 1 1 0 0 0-.212-1.99M92.994 150.895a1 1 0 0 0-1.988.208c.058.55.55.948 1.098.892a1 1 0 0 0 .89-1.1M88.994 150.895a1 1 0 0 0-1.988.208 1 1 0 0 0 1.988-.208M83.994 151.895a1 1 0 1 0-1.99.212 1 1 0 0 0 1.99-.212M79.994 151.895a1 1 0 1 0-1.99.209 1 1 0 0 0 1.99-.209M74.104 153.995a1 1 0 1 0-.208-1.989 1 1 0 0 0 .208 1.989M76.104 148.994a.998.998 0 0 0 .89-1.098 1 1 0 1 0-.89 1.098M79.006 148.104a1 1 0 1 0 1.988-.208 1 1 0 0 0-1.988.208M84.006 147.105a1 1 0 0 0 1.988-.208 1 1 0 0 0-1.989.208M88.895 146.005a1 1 0 1 0 .209 1.988 1 1 0 0 0-.209-1.988M94.995 145.895a1 1 0 1 0-.89 1.1c.548-.059.946-.55.89-1.1M97.895 145.005a1 1 0 1 0 .212 1.99 1 1 0 0 0-.212-1.99M96.896 149.006a1 1 0 1 0 .207 1.988 1 1 0 0 0-.207-1.988M96.994 140.896a1 1 0 1 0-1.988.207 1 1 0 0 0 1.988-.207M91.994 141.896a1 1 0 0 0-1.988.208 1 1 0 1 0 1.989-.208M86.005 142.103a1 1 0 1 0 0 0M81.006 143.103a1 1 0 1 0 1.988-.206 1 1 0 0 0-1.988.206M78.105 143.994a1 1 0 1 0-.209-1.987 1 1 0 0 0 .209 1.987M80.106 139.994a.999.999 0 0 0-.21-1.988 1 1 0 1 0 .21 1.988M83.896 137.005a1 1 0 1 0 .208 1.989 1 1 0 0 0-.208-1.989M88.006 138.105a1 1 0 1 0 1.988-.209 1 1 0 0 0-1.988.209M92.006 137.105a1 1 0 1 0 1.988-.209 1 1 0 0 0-1.988.209M97.006 137.105a1 1 0 1 0 1.987-.209 1 1 0 0 0-1.987.209M101.895 135.006a1 1 0 1 0 .209 1.987 1 1 0 0 0-.209-1.987M106.895 135.006a1 1 0 1 0 .212 1.99 1 1 0 0 0-.212-1.99M110.895 134.006a1 1 0 1 0 .209 1.988 1 1 0 0 0-.209-1.988M115.895 134.006a1 1 0 1 0 .212 1.99 1 1 0 0 0-.212-1.99M119.895 133.006a1 1 0 1 0 .212 1.99 1 1 0 0 0-.212-1.99M124.895 133.006c-.548.058-.946.55-.89 1.097a1 1 0 1 0 .89-1.098M128.895 132.006c-.548.058-.946.55-.89 1.097a1 1 0 1 0 .89-1.098M133.895 132.006a1 1 0 1 0 .21 1.99 1 1 0 0 0-.21-1.99M138.994 131.896a1 1 0 1 0-1.988.207 1 1 0 0 0 1.988-.207M143.104 132.994a1 1 0 1 0-.207-1.988 1 1 0 0 0 .207 1.988M147.104 132.994a1 1 0 1 0-.207-1.988 1 1 0 0 0 .207 1.988M152.104 131.994a1 1 0 1 0-.209-1.99 1 1 0 0 0 .209 1.99M99.896 140.006a.998.998 0 0 0-.89 1.098 1 1 0 1 0 .89-1.098M104.896 139.006a.998.998 0 0 0-.89 1.098 1 1 0 1 0 .89-1.098M108.896 139.006a1 1 0 1 0 .208 1.99 1 1 0 0 0-.208-1.99M113.896 139.006a1 1 0 1 0 .207 1.988 1 1 0 0 0-.207-1.988M117.896 138.006a1 1 0 1 0 .207 1.988 1 1 0 0 0-.207-1.988M122.896 138.006a1 1 0 1 0 .207 1.988 1 1 0 0 0-.207-1.988M126.896 137.006a1 1 0 1 0 .21 1.99 1 1 0 0 0-.21-1.99M131.896 137.006a1 1 0 1 0 .207 1.988 1 1 0 0 0-.207-1.988M136.105 137.994a1.001 1.001 0 1 0-.212-1.987 1.001 1.001 0 0 0 .212 1.987M102.895 144.005a1 1 0 1 0 .212 1.99 1 1 0 0 0-.212-1.99M114.896 148.006a1 1 0 1 0 .208 1.99 1 1 0 0 0-.208-1.99M118.895 147.006a.999.999 0 1 0 1.1.89 1 1 0 0 0-1.1-.89M107.895 153.005a1 1 0 1 0 .212 1.99 1 1 0 0 0-.212-1.99M112.006 153.105a1 1 0 1 0 1.99-.21 1 1 0 0 0-1.99.21M116.006 153.105a1 1 0 1 0 1.988-.21 1 1 0 0 0-1.988.21M121.894 151.006a1 1 0 1 0 .211 1.988 1 1 0 0 0-.211-1.988M125.896 151.006a1 1 0 1 0 .208 1.988 1 1 0 0 0-.208-1.988M106.006 158.106a1 1 0 1 0 1.988-.211 1 1 0 0 0-1.988.211M110.006 158.104a1 1 0 1 0 1.988-.207 1 1 0 0 0-1.988.207M115.006 158.106a1.001 1.001 0 0 0 1.99-.21 1 1 0 1 0-1.99.21M119.006 157.104a1 1 0 1 0 1.988-.208 1 1 0 0 0-1.988.208M124.006 157.104a1 1 0 1 0 1.988-.208 1 1 0 0 0-1.988.208M128.895 155.006a1 1 0 1 0 .212 1.99 1 1 0 0 0-.212-1.99M104.005 163.105a1 1 0 1 0 1.988-.209 1 1 0 0 0-1.988.209M108.006 163.105a1 1 0 1 0 1.99-.21 1 1 0 0 0-1.99.21M114.994 161.895a1.002 1.002 0 0 0-1.097-.89 1 1 0 1 0 1.098.89M118.994 161.894a1 1 0 1 0-1.987.211 1 1 0 0 0 1.987-.211M122.006 161.105a1 1 0 1 0 1.99-.21 1 1 0 0 0-1.99.21M126.006 161.105a1 1 0 1 0 1.99-.212 1 1 0 0 0-1.99.212M102.006 168.106a.998.998 0 0 0 1.098.888.997.997 0 0 0 .89-1.098 1 1 0 0 0-1.989.21M107.895 166.006a1 1 0 1 0 .21 1.989 1 1 0 0 0-.21-1.99M111.895 166.006a1 1 0 1 0 .209 1.99 1 1 0 0 0-.209-1.99M116.895 165.006a1 1 0 1 0 .21 1.989 1 1 0 0 0-.21-1.99M120.895 165.006a1 1 0 1 0 .209 1.99 1 1 0 0 0-.209-1.99M125.895 165.006a1 1 0 1 0 .212 1.99 1 1 0 0 0-.212-1.99M129.006 165.104a1 1 0 1 0 1.988-.207 1 1 0 0 0-1.988.207M135.994 164.896a1 1 0 1 0-1.988.207 1 1 0 0 0 1.988-.207M132.104 160.994a1 1 0 1 0-.207-1.988 1 1 0 0 0 .207 1.988M141.994 136.895a1 1 0 1 0-1.99.209 1 1 0 0 0 1.99-.21M145.105 136.994a1 1 0 1 0-.212-1.99 1 1 0 0 0 .212 1.99M150.105 136.994a1 1 0 0 0-.21-1.988c-.548.058-.947.55-.89 1.1.059.55.55.948 1.1.888M129.895 141.006c-.548.058-.946.55-.89 1.097a1 1 0 1 0 .89-1.098M133.894 141.006a1 1 0 1 0 1.1.89 1 1 0 0 0-1.1-.89M139.104 141.994a1 1 0 1 0-.207-1.988 1 1 0 0 0 .207 1.988M143.994 140.897a1 1 0 1 0 0 0M147.006 140.104a1 1 0 1 0 1.99-.208 1 1 0 0 0-1.99.208M152.104 140.994a1 1 0 1 0-.207-1.988 1 1 0 0 0 .207 1.988M136.895 145.005a1 1 0 1 0 .209 1.988 1 1 0 0 0-.209-1.988M142.105 146.994a1 1 0 1 0-.212-1.99 1 1 0 0 0 .212 1.99M146.994 144.895a1 1 0 1 0-1.987.211 1 1 0 0 0 1.987-.211M151.994 144.895a1.002 1.002 0 0 0-1.1-.89 1 1 0 1 0 1.1.89M139.896 149.006a.999.999 0 1 0 .206 1.987.999.999 0 0 0-.206-1.987M144.104 150.994a1 1 0 1 0-.207-1.988 1 1 0 0 0 .207 1.988M149.994 148.896a1 1 0 1 0-1.99.208 1 1 0 0 0 1.99-.208M153.994 148.896a.998.998 0 0 0-1.098-.89 1 1 0 1 0 1.098.89M142.895 154.006a1 1 0 1 0 .212 1.99 1 1 0 0 0-.212-1.99M147.105 154.994a1 1 0 1 0-.209-1.988 1 1 0 0 0 .209 1.988M152.105 154.994a1 1 0 0 0-.21-1.988 1 1 0 1 0 .21 1.989M156.105 153.994a1 1 0 0 0-.21-1.989 1 1 0 1 0 .21 1.99M155.994 143.895a1.002 1.002 0 0 0-1.1-.89 1 1 0 1 0 1.1.89M154.105 135.994a1 1 0 1 0-.21-1.99 1 1 0 0 0 .21 1.99M95.104 132.994a1 1 0 1 0-.207-1.988 1 1 0 0 0 .207 1.988M89.006 133.104a1 1 0 1 0 1.99-.208 1 1 0 0 0-1.99.208M86.105 133.994a1 1 0 1 0-.209-1.987 1 1 0 0 0 .209 1.987M81.105 134.995a1 1 0 1 0-.211-1.99 1 1 0 0 0 .21 1.99M83.103 129.994c.55-.058.948-.55.892-1.097a1 1 0 1 0-.892 1.097M88.104 129.994a1 1 0 1 0-.208-1.988 1 1 0 0 0 .208 1.988M91.895 127.005a1 1 0 1 0 .209 1.988 1 1 0 0 0-.209-1.988M97.104 128.994a1 1 0 1 0-.208-1.988 1 1 0 0 0 .208 1.988M101.105 127.995a1 1 0 1 0-.209-1.99 1 1 0 0 0 .21 1.99M128.105 124.994a1 1 0 1 0-.212-1.99 1 1 0 0 0 .212 1.99M133.105 124.994a1 1 0 1 0-.212-1.99 1 1 0 0 0 .212 1.99M137.105 123.994a1 1 0 1 0-.209-1.987 1 1 0 0 0 .209 1.987M142.104 123.994a1 1 0 1 0-.207-1.988 1 1 0 0 0 .207 1.988M99.104 132.994a1 1 0 1 0-.207-1.988 1 1 0 0 0 .207 1.988M104.104 132.994a1 1 0 1 0-.209-1.99 1 1 0 0 0 .209 1.99M108.104 131.994a1 1 0 1 0-.209-1.99 1 1 0 0 0 .209 1.99M113.104 131.994a1 1 0 1 0-.209-1.99 1 1 0 0 0 .209 1.99M117.104 130.994a1 1 0 1 0-.208-1.988 1 1 0 0 0 .208 1.988M122.104 130.994a.999.999 0 1 0-.208-1.988 1 1 0 0 0 .208 1.988M126.104 129.994a.999.999 0 1 0-.208-1.988 1 1 0 1 0 .208 1.988M131.103 129.994c.55-.058.948-.55.892-1.097a1 1 0 1 0-.892 1.097M135.995 127.895a1 1 0 1 0-1.99.212 1 1 0 0 0 1.99-.212M140.103 128.994a1 1 0 1 0 0 0M144.105 127.994a1 1 0 1 0-.211-1.987 1 1 0 0 0 .211 1.987M149.106 127.994a.997.997 0 0 0 .888-1.098 1 1 0 1 0-.888 1.098M94.105 123.994a1 1 0 1 0-.21-1.989 1 1 0 0 0 .21 1.99M89.105 124.994a1 1 0 1 0-.212-1.99 1 1 0 0 0 .212 1.99M91.104 119.994a1 1 0 1 0-.207-1.988 1 1 0 0 0 .207 1.988M134.104 119.994a1 1 0 1 0-.207-1.988 1 1 0 0 0 .207 1.988M173.105 74.994a1 1 0 1 0-.212-1.99 1 1 0 0 0 .212 1.99M175.994 69.895a1 1 0 1 0-1.99.212 1 1 0 0 0 1.99-.212M170.104 70.994a1 1 0 1 0-.207-1.988 1 1 0 0 0 .207 1.988M166.895 65.005a1 1 0 1 0 .209 1.99 1 1 0 0 0-.209-1.99M172.995 64.896a1 1 0 1 0-1.989.208 1 1 0 0 0 1.989-.208M176.994 64.896a1 1 0 1 0-1.988.207 1 1 0 0 0 1.988-.207M177.006 60.104a1 1 0 1 0 1.988-.207 1 1 0 0 0-1.988.207M173.006 61.106a1 1 0 1 0 .888-1.1 1 1 0 0 0-.888 1.1M169.994 60.895a1 1 0 0 0-1.989.208 1.001 1.001 0 0 0 1.99-.208M164.895 61.006a1 1 0 1 0 .211 1.987 1 1 0 0 0-.211-1.987M161.006 57.105a.999.999 0 1 0 1.986-.208.999.999 0 0 0-1.986.208M165.006 57.105a1 1 0 1 0 1.987-.209 1 1 0 0 0-1.987.209M170.006 56.105a1 1 0 1 0 1.987-.209 1 1 0 0 0-1.987.209M174.006 56.104a1 1 0 1 0 1.99-.209 1 1 0 0 0-1.99.209M180.105 55.994a1 1 0 1 0 0 0M176.897 50.006a1 1 0 1 0 0 0M172.895 51.006a1 1 0 1 0 0 0M167.006 52.106a.996.996 0 0 0 1.098.888.998.998 0 0 0 .89-1.098 1 1 0 0 0-1.989.21M163.006 53.105a1 1 0 1 0 1.99-.212 1 1 0 0 0-1.99.212M158.006 53.103a1 1 0 1 0 1.988-.208 1 1 0 0 0-1.988.208M154.006 54.105a1 1 0 1 0 1.99-.212 1 1 0 0 0-1.99.212M151.006 49.104a1 1 0 1 0 1.988-.207 1 1 0 0 0-1.988.207M147.006 50.104a.998.998 0 0 0 1.098.89 1 1 0 1 0-1.098-.89M142.006 50.104a.997.997 0 0 0 1.098.89 1 1 0 1 0-1.098-.89M157.104 49.994a1 1 0 1 0-.207-1.988 1 1 0 0 0 .207 1.988M160.896 47.005a1 1 0 1 0 .208 1.989 1 1 0 0 0-.208-1.989M165.896 47.005a1 1 0 1 0 .208 1.989 1 1 0 0 0-.208-1.989M169.896 46.005a1 1 0 1 0 .208 1.989 1 1 0 0 0-.208-1.989M153.895 44.006a1 1 0 1 0 .21 1.988 1 1 0 0 0-.21-1.988M149.105 45.994a1 1 0 1 0-.212-1.99 1 1 0 0 0 .212 1.99M144.006 46.105a1 1 0 1 0 1.989-.21 1 1 0 0 0-1.99.21M139.006 46.105a1 1 0 1 0 1.99-.212 1 1 0 0 0-1.99.212M135.006 46.104a1.001 1.001 0 1 0 1.99-.21 1.001 1.001 0 0 0-1.99.21M131.995 46.894a1 1 0 1 0-1.988.211 1 1 0 0 0 1.988-.211M39.104 97.994a1 1 0 1 0-.209-1.99 1 1 0 0 0 .209 1.99M34.103 98.994a1 1 0 1 0 0 0M32.104 94.994a.998.998 0 0 0 .89-1.098 1 1 0 1 0-.89 1.098M29.104 89.994a.999.999 0 1 0-.208-1.989 1 1 0 1 0 .208 1.99M33.994 88.895a1 1 0 1 0-1.99.21 1 1 0 0 0 1.99-.21M38.994 87.894a1 1 0 1 0-1.987.211 1 1 0 0 0 1.987-.211M42.994 87.894a.997.997 0 0 0-1.098-.888 1 1 0 1 0 1.098.888M39.005 84.106a1 1 0 1 0 1.988-.211 1 1 0 0 0-1.988.211M34.005 84.106a1 1 0 1 0 1.988-.211 1 1 0 0 0-1.988.211M31.994 84.896a1 1 0 1 0-1.988.207 1 1 0 0 0 1.988-.207M28.994 79.895a1 1 0 1 0-1.99.21 1 1 0 0 0 1.99-.21M31.006 80.105a1 1 0 1 0 1.987-.209 1 1 0 0 0-1.987.209M36.006 80.105a1 1 0 1 0 1.987-.209 1 1 0 0 0-1.987.209M40.896 78.006a1.001 1.001 0 1 0 1.098.888 1 1 0 0 0-1.098-.888M43.994 73.896a1 1 0 1 0-1.988.207 1 1 0 0 0 1.988-.207M38.006 75.106a1 1 0 1 0 1.987-.211 1 1 0 0 0-1.987.211M33.895 74.006a1 1 0 1 0 0 0M40.104 70.995a1 1 0 1 0-.208-1.989 1 1 0 0 0 .208 1.989M45.994 69.895a1 1 0 1 0-1.987.209 1 1 0 0 0 1.987-.209M49.104 69.995a1 1 0 1 0-.208-1.989 1 1 0 0 0 .208 1.989M60.105 63.994a1.001 1.001 0 1 0-.212-1.987 1.001 1.001 0 0 0 .212 1.987M56.105 64.994a1 1 0 0 0-.21-1.988 1 1 0 1 0 .21 1.989M51.994 63.896a1 1 0 1 0-1.987.21 1 1 0 0 0 1.987-.21M47.994 64.896a1 1 0 1 0-1.988.207 1 1 0 0 0 1.988-.207M48.994 59.895a1 1 0 1 0-1.987.209 1 1 0 0 0 1.987-.209M53.994 59.895a1 1 0 1 0-1.987.209 1 1 0 0 0 1.987-.209M57.994 58.895a1 1 0 1 0-1.987.209 1 1 0 0 0 1.987-.209M62.994 58.896a1 1 0 1 0-1.988.207 1 1 0 0 0 1.988-.207M65.896 57.006a1 1 0 1 0 .208 1.99 1 1 0 0 0-.208-1.99M71.994 57.896a.997.997 0 0 0-1.098-.89 1 1 0 1 0 1.098.89M76.995 56.896a1 1 0 1 0-1.989.208 1 1 0 0 0 1.989-.208M64.994 53.895a1 1 0 1 0-1.99.212 1 1 0 0 0 1.99-.212M59.994 53.895a1 1 0 1 0-1.99.212 1 1 0 0 0 1.99-.212M55.994 54.895a1 1 0 1 0-1.99.212 1 1 0 0 0 1.99-.212M36.994 92.896a1 1 0 1 0-1.99.209 1 1 0 0 0 1.99-.209M41.994 92.896a1 1 0 1 0-1.988.208 1 1 0 0 0 1.988-.208M138.104 42.994a1 1 0 1 0 0 0M141.895 40.006a1 1 0 1 0 .21 1.99 1 1 0 0 0-.21-1.99M146.896 40.006a1 1 0 1 0 .207 1.988 1 1 0 0 0-.207-1.988M139.104 119.994a1 1 0 1 0-.21-1.99 1 1 0 0 0 .21 1.99M144.895 158.006a.999.999 0 1 0 .208 1.988c.55-.06.948-.55.892-1.099a1 1 0 0 0-1.1-.89M149.896 157.006a1 1 0 1 0 .207 1.988 1 1 0 0 0-.207-1.988M153.896 157.006a1 1 0 1 0 .207 1.988 1 1 0 0 0-.207-1.988M147.896 162.005a1 1 0 1 0 .208 1.989 1 1 0 0 0-.208-1.989M152.896 162.005a1 1 0 1 0 .208 1.989 1 1 0 0 0-.208-1.989M156.897 161.005a1 1 0 1 0 0 0M157.104 140.994a1 1 0 1 0-.209-1.99 1 1 0 0 0 .209 1.99M160.105 144.994a1 1 0 1 0-.21-1.99 1 1 0 0 0 .21 1.99M158.994 148.896a1 1 0 1 0-1.988.207 1 1 0 0 0 1.988-.207M162.994 147.896a.998.998 0 0 0-1.098-.89 1 1 0 1 0 1.098.89M160.894 152.005a1 1 0 1 0 .211 1.988 1 1 0 0 0-.211-1.988M158.896 157.006a1 1 0 1 0 .208 1.99 1 1 0 0 0-.208-1.99M162.895 156.006a.999.999 0 1 0 .21 1.988 1.001 1.001 0 0 0-.21-1.988M80.104 161.994a1 1 0 1 0-.207-1.988 1 1 0 0 0 .207 1.988M84.104 161.994a1 1 0 1 0-.207-1.988 1 1 0 0 0 .207 1.988M89.104 160.994a1 1 0 1 0-.207-1.988 1 1 0 0 0 .207 1.988M92.896 159.006a.999.999 0 1 0 .208 1.988 1 1 0 1 0-.208-1.988M90.895 164.006a1 1 0 1 0 .21 1.99 1 1 0 0 0-.21-1.99M75.896 170.006a.997.997 0 0 0-.89 1.098 1 1 0 1 0 .89-1.098M80.896 169.006a1 1 0 1 0 .207 1.988 1 1 0 0 0-.207-1.988M77.895 165.006a1 1 0 1 0 .21 1.989 1 1 0 0 0-.21-1.99M81.895 165.006a1 1 0 1 0 .21 1.989 1 1 0 0 0-.21-1.99M84.896 169.006a1 1 0 1 0 .207 1.988 1 1 0 0 0-.207-1.988M89.896 168.006a1 1 0 1 0 .207 1.988 1 1 0 0 0-.207-1.988M86.895 164.006a1 1 0 1 0 .212 1.99 1 1 0 0 0-.212-1.99"/>
    </g>
</svg>
