<svg xmlns="http://www.w3.org/2000/svg" width="111" height="32" viewBox="0 0 111 32">
    <g fill="#7C7C93" fill-rule="nonzero">
        <path d="M27.556 23.345c-.768 1.647-1.105 2.423-2.096 3.855-1.32 2.096-3.191 4.622-5.614 4.622-2.096 0-2.639-1.32-5.502-1.32s-3.415 1.32-5.502 1.32c-2.311 0-4.182-2.31-5.502-4.407C-.402 21.69-.842 14.98 1.47 11.453c1.76-2.536 4.295-3.968 6.821-3.968s4.07 1.32 6.166 1.32c1.984 0 3.19-1.32 6.054-1.32 2.199 0 4.51 1.207 6.166 3.191-5.502 2.975-4.622 10.685.88 12.669z"/>
        <path d="M18.311 5.184c1.104-1.32 1.871-3.191 1.544-5.175-1.76.113-3.743 1.207-4.847 2.639-1.104 1.32-1.983 3.19-1.544 5.062 1.769 0 3.64-1.104 4.847-2.526zM37.025 14.316c0 1.207-.88 2.096-2.312 2.096-1.319 0-2.198-.992-2.198-2.096 0-1.207.88-2.096 2.198-2.096 1.432-.103 2.312.889 2.312 2.096zM32.73 31.598v-13.54h4.182v13.54H32.73zm11.34-15.083h-4.95v-3.519h14.307v3.519h-5.062v15.083h-4.183V16.515h-.112zM66.75 27.19c0 1.759.113 3.19.113 4.294h-3.63l-.225-1.871h-.112c-.552.88-1.76 2.199-4.183 2.199-2.75 0-4.734-1.76-4.734-5.942v-7.925h4.182v7.261c0 1.984.665 3.19 2.096 3.19 1.207 0 1.872-.767 2.096-1.43.112-.225.112-.553.112-.88v-8.029h4.183v9.133h.103zm3.294-4.838c0-1.647-.112-3.078-.112-4.295h3.63l.225 1.872h.112c.552-.88 1.984-2.199 4.183-2.199 2.75 0 4.847 1.871 4.847 5.839v8.037h-4.183v-7.485c0-1.76-.664-2.976-2.096-2.976-1.207 0-1.871.767-2.096 1.544-.112.328-.224.664-.224 1.104v7.813h-4.183v-9.244h-.103v-.01zm19.49 3.855c.113 1.76 1.872 2.536 3.855 2.536 1.432 0 2.64-.225 3.743-.552l.552 2.863c-1.431.552-3.078.88-4.847.88-4.622 0-7.26-2.64-7.26-6.934 0-3.415 2.096-7.26 6.82-7.26 4.408 0 6.054 3.415 6.054 6.717 0 .768-.112 1.32-.112 1.647h-8.804v.103zm4.95-2.975c0-.992-.44-2.751-2.423-2.751-1.76 0-2.536 1.647-2.639 2.75h5.062zm6.39 4.622c.768.44 2.424.992 3.631.992 1.32 0 1.76-.44 1.76-1.104 0-.665-.44-.992-1.984-1.544-2.751-.88-3.855-2.424-3.855-3.967 0-2.536 2.199-4.407 5.501-4.407 1.544 0 2.976.327 3.855.767l-.767 2.863c-.664-.328-1.759-.767-2.975-.767-.992 0-1.647.44-1.647 1.104 0 .664.552.992 2.199 1.544 2.535.88 3.63 2.199 3.63 4.182 0 2.536-1.983 4.407-5.838 4.407-1.76 0-3.303-.44-4.407-.992l.898-3.078z"/>
    </g>
</svg>
