<svg xmlns="http://www.w3.org/2000/svg" width="134" height="40" viewBox="0 0 134 40">
    <g fill="#7C7C93" fill-rule="nonzero">
        <path d="M20.173.012C9.017.012.046 8.982.046 20c0 11.017 8.971 19.988 19.989 19.988 11.017 0 19.988-8.97 19.988-19.988C40.162 8.983 31.191.012 20.173.012zm9.11 28.832c-.404.543-1.086.82-1.769.405-4.763-2.856-10.612-3.538-17.549-1.908-.682.139-1.364-.277-1.491-.948-.127-.67.277-1.364.948-1.491 7.618-1.77 14.15-.948 19.445 2.173.555.405.82 1.226.416 1.769zm2.451-5.445c-.405.682-1.364.948-2.173.543-5.445-3.26-13.596-4.22-19.989-2.312-.82.278-1.63-.277-1.907-1.087-.278-.82.277-1.63 1.086-1.907 7.214-2.174 16.324-1.087 22.44 2.717.809.416.948 1.364.543 2.046zM32 17.688c-6.393-3.804-17.133-4.22-23.26-2.312-.948.277-2.035-.278-2.312-1.226-.278-.948.277-2.034 1.225-2.312 7.075-2.173 18.775-1.769 26.255 2.717.947.543 1.225 1.63.682 2.59-.544.82-1.77 1.086-2.59.543z"/>
        <g transform="translate(46.012 9.249)">
            <path d="M8.566 9.26c-3.398-.82-4.08-1.364-4.08-2.59 0-1.086 1.086-1.907 2.716-1.907 1.492 0 3.133.543 4.763 1.769h.139s.139 0 .139-.139l1.63-2.312c.139-.139 0-.278 0-.278-1.908-1.49-4.081-2.312-6.66-2.312-3.675 0-6.392 2.174-6.392 5.445 0 3.4 2.312 4.625 6.115 5.573 3.26.82 3.804 1.364 3.804 2.59 0 1.225-1.087 2.034-2.994 2.034-2.035 0-3.677-.682-5.445-2.312h-.14s-.138 0-.138.139L.116 17.272c-.14.138-.14.277 0 .277 2.173 1.908 4.763 2.856 7.618 2.856 4.081 0 6.66-2.174 6.66-5.573.022-2.994-1.608-4.624-5.828-5.572zm14.96-3.41c-1.769 0-3.133.682-4.347 2.034v-1.63a.298.298 0 0 0-.277-.277h-3.133a.298.298 0 0 0-.278.277v17.55c0 .138.14.277.278.277h3.133a.298.298 0 0 0 .277-.278v-5.572c1.226 1.364 2.59 1.908 4.347 1.908 3.26 0 6.532-2.451 6.532-7.214 0-4.624-3.26-7.075-6.532-7.075zm2.994 7.214c0 2.45-1.491 4.08-3.676 4.08-2.173 0-3.676-1.768-3.676-4.08 0-2.313 1.63-4.081 3.676-4.081 2.046 0 3.676 1.63 3.676 4.08zM38.486 5.85c-4.22 0-7.48 3.26-7.48 7.34 0 4.082 3.26 7.215 7.34 7.215 4.22 0 7.48-3.26 7.48-7.341s-3.26-7.214-7.34-7.214zm0 11.295c-2.174 0-3.943-1.77-3.943-4.081 0-2.313 1.63-4.081 3.804-4.081 2.173 0 3.942 1.768 3.942 4.08.012 2.451-1.618 4.082-3.803 4.082zM54.809 6.127H51.41V2.59a.298.298 0 0 0-.277-.278H48a.298.298 0 0 0-.277.278v3.537h-1.48a.298.298 0 0 0-.278.278V9.12c0 .14.139.278.278.278h1.491v6.936c0 2.717 1.364 4.22 4.081 4.22a6.384 6.384 0 0 0 2.856-.682c.138 0 .138-.139.138-.139V16.88c0-.14 0-.14-.138-.14h-.278c-.543.278-1.225.406-1.769.406-.948 0-1.491-.405-1.491-1.492V9.26h3.676a.298.298 0 0 0 .278-.277V6.266c-.139-.139-.139-.139-.278-.139zm11.838 0v-.404c0-1.226.544-1.77 1.492-1.77.682 0 1.225.14 1.769.278h.277l.139-.139V1.376c0-.139 0-.139-.139-.278-.682-.138-1.364-.404-2.59-.404-2.855 0-4.346 1.63-4.346 4.624V6h-1.63a.298.298 0 0 0-.278.277v2.717c0 .139.139.278.277.278h1.492v10.612c0 .14.139.278.277.278h3.133a.298.298 0 0 0 .278-.278V9.272h2.855l4.486 10.612c-.544 1.087-.948 1.365-1.63 1.365-.544 0-1.087-.14-1.77-.544h-.138s-.139 0-.139.139l-1.086 2.312c0 .139 0 .278.138.278 1.087.543 2.035.82 3.26.82 2.313 0 3.538-1.086 4.625-3.942L82.705 6.44v-.277l-.139-.139h-3.26c-.138 0-.138 0-.277.139l-3.26 9.387-3.677-9.387c0-.139-.138-.139-.277-.139h-5.168v.104zm-6.936 0h-3.133a.298.298 0 0 0-.277.278v13.468c0 .139.138.277.277.277h3.133a.298.298 0 0 0 .277-.277V6.405c-.011-.278-.15-.278-.277-.278z"/>
            <circle cx="58.208" cy="2.185" r="2.173"/>
        </g>
        <path d="M131.283 19.723a2.142 2.142 0 0 1-2.173-2.174c0-1.225.948-2.173 2.173-2.173 1.226 0 2.174.948 2.174 2.173.138 1.087-.948 2.174-2.174 2.174zm.139-4.209c-1.087 0-1.908.948-1.908 1.908 0 1.087.821 1.907 1.908 1.907s1.907-.947 1.907-1.907c0-.96-.82-1.908-1.907-1.908zm.416 2.174l.682.82h-.543l-.543-.82h-.544v.82h-.404v-2.311h.948c.543 0 .82.277.82.682.128.531-.15.809-.416.809zm-.416-.948h-.543v.682h.543c.277 0 .405-.139.405-.405.138-.15-.128-.277-.405-.277z"/>
    </g>
</svg>
