<svg xmlns="http://www.w3.org/2000/svg" width="201" height="27" viewBox="0 0 201 27">
    <g fill="#7C7C93" fill-rule="nonzero">
        <path d="M72.804 26.006h-5.13V7.796h-6.641V3.398h18.43V7.78h-6.642l-.017 18.226zm27.179 0h-5.164V3.397h5.164v22.61zm91.15-4.467h8.935v4.467h-14.099V3.397h5.164V21.54zM117.19 3.38h8.375c6.166 0 12.315 3.279 12.315 11.245 0 7.526-6.013 11.347-12.026 11.347h-8.664V3.38zm4.994 18.193h3.194c4.315 0 7.185-2.684 7.185-6.965 0-4.076-2.904-6.811-7.05-6.811h-3.329v13.776zm44.335 4.433h5.657l-9.309-22.609h-5.35l-9.411 22.61h5.538l1.681-4.468h9.547l1.647 4.467zm-9.784-8.476l3.397-8.85 3.38 8.85h-6.777zM26.516 6.676L19.891 13.3l-6.624-6.624L19.89.05z"/>
        <path d="M13.275 19.913l6.618-6.619 6.618 6.619-6.618 6.618zM13.267 6.676L6.659 13.3.034 6.676 6.659.05l6.608 6.625zm26.499 0L33.14 13.3l-6.625-6.624L33.141.05l6.625 6.625z"/>
    </g>
</svg>
